<?xml version="1.0" encoding="UTF-8" standalone="no"?>
<svg
   id="svg"
   version="1.1"
   viewBox="0 0 187 216"
   style="display: block;"
   sodipodi:docname="editted_hufflepuff.svg"
   inkscape:version="1.1.2 (08b2f3d93c, 2022-04-05)"
   xmlns:inkscape="http://www.inkscape.org/namespaces/inkscape"
   xmlns:sodipodi="http://sodipodi.sourceforge.net/DTD/sodipodi-0.dtd"
   xmlns="http://www.w3.org/2000/svg"
   xmlns:svg="http://www.w3.org/2000/svg">
  <defs
     id="defs3334" />
  <sodipodi:namedview
     id="namedview3332"
     pagecolor="#ffffff"
     bordercolor="#666666"
     borderopacity="1.0"
     inkscape:pageshadow="2"
     inkscape:pageopacity="0.0"
     inkscape:pagecheckerboard="0"
     showgrid="false"
     inkscape:zoom="2.462963"
     inkscape:cx="104.95489"
     inkscape:cy="86.684211"
     inkscape:window-width="1286"
     inkscape:window-height="704"
     inkscape:window-x="74"
     inkscape:window-y="27"
     inkscape:window-maximized="1"
     inkscape:current-layer="svg" />
  <path
     d="M 32.694279,86 H 158 v 81 H 32.694279 Z"
     style="display:block;fill:#171510;stroke-width:0.50128"
     id="path3183-8-3" />
  <path
     d="m 32,37 h 100 v 81 H 32 Z"
     style="display:block;fill:#171510;stroke-width:0.447811"
     id="path3183-8-3-8" />
  <path
     d="M0,0 L10,1 L19,5 L25,9 L29,12 L29,14 L31,14 L35,18 L35,20 L30,18 L31,20 L41,20 L37,18 L41,16 L47,16 L54,24 L66,34 L75,38 L75,40 L68,40 L64,50 L63,50 L63,42 L59,51 L55,57 L49,57 L47,56 L49,45 L48,34 L44,33 L38,28 L30,28 L29,22 L23,21 L22,24 L24,28 L27,32 L37,34 L43,39 L44,48 L40,53 L36,53 L36,64 L39,81 L43,95 L46,105 L49,114 L53,122 L58,134 L61,138 L61,140 L66,141 L65,146 L57,148 L53,150 L53,152 L58,152 L54,159 L50,160 L52,165 L48,164 L44,156 L44,148 L47,144 L50,143 L52,134 L48,128 L44,118 L39,112 L36,110 L36,107 L24,105 L22,104 L25,109 L17,109 L17,111 L18,116 L18,119 L13,118 L3,109 L1,106 L3,111 L5,114 L4,117 L0,113 L-2,115 L-5,110 L-5,105 L-7,105 L-8,109 L-10,106 L-8,82 L-29,82 L-28,87 L-33,90 L-38,92 L-41,94 L-44,94 L-44,92 L-46,92 L-46,81 L-43,78 L-42,74 L-40,70 L-38,69 L-22,69 L-17,70 L8,72 L11,73 L11,76 L13,76 L13,71 L15,71 L15,68 L5,69 L-2,66 L-5,62 L-16,59 L-17,58 L-17,53 L-12,52 L-12,47 L-17,51 L-28,54 L-26,58 L-30,57 L-35,55 L-39,56 L-39,62 L-39,66 L-47,77 L-50,81 L-52,86 L-56,91 L-56,97 L-60,105 L-68,109 L-71,109 L-70,102 L-66,89 L-62,68 L-62,55 L-68,50 L-68,40 L-64,35 L-60,33 L-52,32 L-45,23 L-36,18 L-28,17 L-25,19 L-22,20 L-22,22 L-20,22 L-21,17 L-22,13 L-15,19 L-8,18 L-3,12 L-2,14 L-4,17 L-5,22 L-3,22 L-2,19 L3,17 L11,18 L18,21 L11,17 L0,14 L-1,13 L-1,3 Z "
     transform="translate(105,1)"
     style="fill: #CFA727;"
     id="path3187" />
  <path
     d="M0,0 L6,1 L7,7 L15,6 L22,12 L25,13 L27,20 L26,29 L24,35 L32,35 L37,27 L39,21 L41,20 L41,30 L38,36 L30,42 L27,42 L28,55 L30,64 L32,70 L32,77 L34,77 L38,91 L44,102 L44,105 L49,106 L53,110 L56,119 L56,131 L52,143 L50,143 L48,148 L44,153 L31,162 L19,169 L3,174 L-8,179 L-24,187 L-33,193 L-38,194 L-49,186 L-63,179 L-87,170 L-104,161 L-116,152 L-122,143 L-125,138 L-124,136 L-122,137 L-124,131 L-124,119 L-122,119 L-119,112 L-113,109 L-105,93 L-102,84 L-100,84 L-100,86 L-98,86 L-99,92 L-107,111 L-110,115 L-115,118 L-116,127 L-115,129 L-115,119 L-113,117 L-108,115 L-103,104 L-95,104 L-92,105 L-92,108 L-85,108 L-86,113 L-82,114 L-84,116 L-87,116 L-87,118 L-78,118 L-70,114 L-70,117 L-72,117 L-73,121 L-75,121 L-77,125 L-81,126 L-82,128 L-75,127 L-72,125 L-74,130 L-79,130 L-79,132 L-73,130 L-64,130 L-66,134 L-69,137 L-64,139 L-68,140 L-68,142 L-57,143 L-35,143 L-24,145 L-15,145 L-12,143 L-7,143 L-7,146 L3,146 L2,148 L0,148 L0,150 L3,149 L6,145 L7,141 L11,140 L11,142 L15,142 L16,137 L18,134 L15,134 L16,130 L18,128 L19,130 L21,129 L23,138 L26,143 L27,142 L27,139 L31,137 L34,132 L30,131 L30,129 L36,125 L42,124 L42,120 L38,119 L32,109 L27,96 L25,93 L21,79 L19,74 L15,60 L12,43 L12,34 L13,32 L18,30 L20,27 L19,18 L14,14 L4,12 L-3,3 Z M-101,86 Z "
     transform="translate(128,22)"
     style="fill: #12100B;"
     id="path3189" />
  <path
     d="M0,0 L6,1 L7,7 L15,6 L22,12 L25,13 L27,20 L26,29 L24,35 L32,35 L37,27 L39,21 L41,20 L41,30 L38,36 L30,42 L27,42 L28,55 L30,64 L32,70 L32,77 L34,77 L38,91 L44,102 L44,105 L49,106 L53,110 L56,119 L56,131 L52,143 L50,143 L48,148 L44,153 L31,162 L19,169 L3,174 L-8,179 L-24,187 L-33,193 L-38,194 L-49,186 L-63,179 L-87,170 L-104,161 L-109,157 L-108,154 L-103,156 L-95,161 L-99,157 L-93,159 L-87,162 L-85,162 L-89,159 L-90,155 L-101,149 L-111,140 L-114,136 L-113,133 L-105,143 L-91,152 L-75,159 L-55,167 L-39,175 L-38,176 L-31,175 L-12,165 L0,160 L14,155 L28,148 L38,139 L42,129 L42,120 L38,119 L32,109 L27,96 L25,93 L21,79 L19,74 L15,60 L12,43 L12,34 L13,32 L18,30 L20,27 L19,18 L14,14 L4,12 L-3,3 Z "
     transform="translate(128,22)"
     style="fill: #28241C;"
     id="path3191" />
  <path
     d="M0,0 L6,0 L7,1 L7,13 L-1,16 L-1,18 L-11,22 L-16,27 L-21,33 L-31,35 L-36,40 L-36,50 L-30,55 L-30,68 L-35,93 L-40,109 L-38,110 L-42,110 L-46,119 L-40,119 L-40,121 L-21,121 L-14,129 L-14,133 L-20,138 L-24,140 L-31,140 L-33,139 L-33,137 L-29,135 L-32,134 L-31,129 L-39,130 L-38,126 L-49,125 L-52,134 L-55,138 L-60,140 L-60,153 L-62,152 L-63,143 L-61,138 L-55,134 L-51,126 L-45,110 L-44,107 L-46,107 L-46,105 L-48,105 L-50,114 L-58,130 L-64,133 L-67,140 L-68,146 L-69,146 L-69,152 L-68,158 L-71,157 L-73,148 L-73,137 L-71,132 L-64,126 L-61,126 L-60,121 L-54,108 L-50,95 L-48,90 L-45,76 L-44,64 L-49,62 L-56,56 L-59,48 L-62,40 L-67,40 L-69,47 L-67,47 L-64,53 L-62,61 L-66,59 L-71,45 L-71,40 L-68,37 L-62,35 L-51,27 L-42,19 L-40,16 L-33,17 L-27,18 L-25,14 L-17,7 L-7,2 Z M-47,107 Z "
     transform="translate(74,1)"
     style="fill: #2F2A1F;"
     id="path3193" />
  <path
     d="M0,0 L8,3 L8,5 L12,7 L16,11 L22,14 L25,14 L25,22 L23,26 L21,27 L9,28 L9,30 L10,33 L5,33 L7,38 L8,41 L17,41 L20,36 L15,37 L16,34 L26,32 L27,25 L31,25 L29,32 L26,35 L23,35 L21,41 L17,45 L17,47 L22,46 L27,38 L30,36 L38,35 L38,40 L42,41 L46,42 L46,45 L49,45 L48,43 L48,34 L39,31 L34,25 L40,21 L42,21 L35,8 L38,9 L43,18 L41,11 L45,12 L48,29 L52,43 L55,53 L58,62 L62,70 L67,82 L70,86 L70,88 L75,89 L74,94 L66,96 L62,98 L62,100 L67,100 L63,107 L59,108 L61,113 L57,112 L53,104 L53,96 L56,92 L59,91 L61,82 L57,76 L53,66 L48,60 L45,58 L45,55 L33,53 L31,52 L34,57 L26,57 L26,59 L27,64 L27,67 L22,66 L12,57 L10,54 L12,59 L14,62 L13,65 L9,61 L7,63 L4,58 L4,53 L2,53 L1,57 L-1,54 L1,30 L-20,30 L-19,35 L-24,38 L-29,40 L-32,42 L-35,42 L-35,40 L-37,40 L-37,29 L-34,26 L-33,22 L-31,18 L-29,17 L-13,17 L-8,18 L17,20 L20,21 L20,24 L22,24 L22,19 L24,19 L24,16 L14,17 L7,14 L4,10 L-7,7 L-8,6 L-8,1 Z "
     transform="translate(96,53)"
     style="fill: #B78F27;"
     id="path3195" />
  <path
     d="M0,0 L10,1 L19,5 L25,9 L29,12 L29,14 L31,14 L35,18 L35,20 L30,18 L31,20 L41,20 L37,18 L41,16 L47,16 L54,24 L66,34 L75,38 L75,40 L68,40 L64,50 L63,50 L63,42 L59,51 L55,57 L49,57 L47,56 L49,45 L48,34 L44,33 L38,28 L30,28 L29,22 L23,21 L22,24 L24,28 L27,32 L37,34 L43,39 L44,48 L42,50 L42,44 L35,43 L34,41 L41,42 L39,37 L36,37 L36,35 L27,36 L20,32 L16,28 L11,27 L14,26 L12,20 L4,20 L3,24 L-6,30 L-13,30 L-11,36 L-16,31 L-19,34 L-19,27 L-26,22 L-25,19 L-22,20 L-22,22 L-20,22 L-21,17 L-22,13 L-15,19 L-8,18 L-3,12 L-2,14 L-4,17 L-5,22 L-3,22 L-2,19 L3,17 L11,18 L18,21 L11,17 L0,14 L-1,13 L-1,3 Z "
     transform="translate(105,1)"
     style="fill: #9F822D;"
     id="path3197" />
  <path
     d="M0,0 L7,0 L10,3 L10,5 L15,7 L21,11 L33,13 L44,16 L61,18 L63,20 L63,25 L60,29 L57,29 L57,27 L59,26 L50,25 L50,22 L43,24 L42,25 L33,25 L22,23 L0,23 L-11,21 L-11,19 L-8,18 L-12,16 L-11,13 L-7,9 L-22,11 L-22,9 L-7,6 L-7,4 L0,2 Z "
     transform="translate(71,143)"
     style="fill: #B89331;"
     id="path3199" />
  <path
     d="M0,0 L4,1 L3,6 L-6,11 L-8,13 L-19,17 L-35,25 L-46,31 L-49,33 L-54,32 L-65,25 L-90,14 L-96,11 L-96,9 L-98,8 L-101,1 L-92,4 L-71,12 L-52,22 L-47,21 L-41,18 L-38,18 L-38,16 L-24,10 Z "
     transform="translate(143,178)"
     style="fill: #191816;"
     id="path3201" />
  <path
     d="M0,0 L5,5 L9,10 L23,19 L39,26 L59,34 L75,42 L76,43 L85,42 L81,46 L75,45 L56,35 L37,28 L29,25 L31,28 L31,31 L35,33 L34,34 L57,44 L71,51 L77,55 L81,54 L91,48 L105,41 L113,38 L121,35 L140,27 L149,21 L152,21 L151,25 L141,31 L130,37 L117,41 L106,46 L90,54 L81,60 L76,61 L65,53 L51,46 L27,37 L10,28 L5,24 L6,21 L11,23 L19,28 L15,24 L21,26 L27,29 L29,29 L25,26 L24,22 L13,16 L3,7 L0,3 Z "
     transform="translate(14,155)"
     style="fill: #656564;"
     id="path3203" />
  <path
     d="M0,0 L4,2 L7,7 L17,7 L13,5 L17,3 L23,3 L30,11 L42,21 L51,25 L51,27 L44,27 L40,37 L39,37 L39,29 L35,38 L31,44 L25,44 L23,43 L25,32 L24,21 L20,20 L14,15 L6,15 L5,9 L0,8 L-2,6 L-1,1 Z "
     transform="translate(129,14)"
     style="fill: #504A38;"
     id="path3205" />
  <path
     d="M0,0 L2,0 L2,2 L4,2 L3,8 L-5,27 L-8,31 L-13,34 L-14,43 L-13,47 L-11,46 L-11,52 L-2,62 L8,68 L13,71 L15,76 L18,79 L13,78 L8,76 L10,78 L5,77 L-4,71 L-9,72 L-16,66 L-23,54 L-22,52 L-20,53 L-22,47 L-22,35 L-20,35 L-17,28 L-11,25 L-3,9 Z M1,2 Z "
     transform="translate(26,106)"
     style="fill: #191815;"
     id="path3207" />
  <path
     d="M0,0 L5,0 L6,2 L1,2 L-3,7 L2,5 L6,5 L7,15 L4,18 L-2,18 L-2,24 L-3,25 L-3,33 L-1,37 L-1,40 L-8,41 L-11,42 L-16,40 L-19,32 L-22,24 L-27,24 L-29,31 L-27,31 L-24,37 L-22,45 L-26,43 L-31,29 L-31,24 L-28,21 L-22,19 L-11,11 L-2,3 Z "
     transform="translate(34,17)"
     style="fill: #453E2F;"
     id="path3209" />
  <path
     d="M0,0 L2,0 L2,5 L5,6 L-3,6 L-2,11 L9,14 L12,17 L12,19 L16,20 L24,21 L29,21 L29,24 L27,24 L27,29 L25,29 L25,26 L-3,24 L-8,23 L-26,23 L-27,27 L-29,32 L-32,34 L-30,24 L-25,18 L-26,9 L-24,7 L-17,8 L-13,10 L-14,7 L-8,4 L-2,2 Z "
     transform="translate(91,48)"
     style="fill: #0F0E0B;"
     id="path3211" />
  <path
     d="M0,0 L16,0 L21,1 L46,3 L46,5 L48,6 L47,7 L33,7 L33,11 L19,13 L9,13 L10,18 L5,21 L0,23 L-3,25 L-6,25 L-6,23 L-8,23 L-8,12 L-5,9 L-4,5 L-2,1 Z "
     transform="translate(67,70)"
     style="fill: #F5F5F3;"
     id="path3213" />
  <path
     d="M0,0 L2,3 L4,12 L8,22 L10,29 L15,40 L20,50 L21,53 L26,54 L25,59 L17,61 L13,63 L13,65 L18,65 L14,72 L10,73 L12,78 L8,77 L4,69 L4,61 L7,57 L10,56 L12,47 L8,41 L4,31 L-1,25 L-4,23 L-4,21 L-1,20 L1,13 Z "
     transform="translate(145,88)"
     style="fill: #916D29;"
     id="path3215" />
  <path
     d="M0,0 L5,1 L7,0 L13,0 L11,2 L8,2 L8,4 L14,4 L15,5 L15,13 L13,27 L9,43 L3,60 L-4,74 L-10,77 L-13,84 L-14,90 L-15,90 L-15,96 L-14,102 L-17,101 L-19,92 L-19,81 L-17,76 L-10,70 L-7,70 L-6,65 L0,52 L4,39 L6,34 L9,20 L10,8 L5,6 L0,2 Z "
     transform="translate(20,57)"
     style="fill: #363533;"
     id="path3217" />
  <path
     d="M0,0 L1,0 L2,8 L5,7 L8,13 L8,17 L12,15 L11,24 L14,23 L13,30 L10,32 L5,27 L5,25 L2,24 L2,22 L-3,23 L-14,23 L-17,22 L-17,20 L-23,20 L-20,11 L-18,8 L-18,11 L-5,9 L-4,11 L-2,9 L-1,1 Z "
     transform="translate(51,100)"
     style="fill: #070503;"
     id="path3219" />
  <path
     d="M0,0 L1,0 L2,10 L6,14 L22,20 L33,21 L37,23 L30,22 L33,27 L25,27 L25,29 L26,34 L26,37 L21,36 L11,27 L9,24 L11,29 L13,32 L12,35 L8,31 L6,33 L3,28 L3,23 L1,23 L0,27 L-2,24 Z "
     transform="translate(97,83)"
     style="fill: #9C998F;"
     id="path3221" />
  <path
     d="M0,0 L5,1 L6,5 L10,7 L14,11 L8,12 L8,10 L6,10 L3,7 L1,7 L1,4 L-9,5 L-10,9 L-8,9 L-8,12 L-15,17 L-17,17 L-15,23 L-21,25 L-26,25 L-25,34 L-31,33 L-31,36 L-35,34 L-36,33 L-36,23 L-32,18 L-28,16 L-20,15 L-13,6 L-4,1 Z "
     transform="translate(73,18)"
     style="fill: #B68D28;"
     id="path3223" />
  <path
     d="M0,0 L6,0 L7,1 L7,13 L-1,16 L-5,16 L-4,13 L-6,12 L-6,14 L-14,17 L-16,23 L-22,23 L-24,28 L-29,28 L-30,21 L-25,20 L-22,15 L-20,13 L-17,13 L-16,10 L-11,7 L-7,5 L-17,10 L-20,10 L-12,4 Z "
     transform="translate(74,1)"
     style="fill: #8C773B;"
     id="path3225" />
  <path
     d="M0,0 L8,0 L8,1 L2,3 L1,7 L-2,7 L-3,11 L-9,13 L-9,16 L-17,21 L-12,21 L-17,27 L-21,25 L-22,27 L-24,27 L-27,21 L-29,11 L-31,14 L-31,5 L-27,1 L-26,4 L-27,11 L-23,11 L-20,11 L-18,9 L-10,6 L-11,4 L-10,1 Z M-12,20 Z "
     transform="translate(86,82)"
     style="fill: #44433F;"
     id="path3227" />
  <path
     d="M0,0 L13,1 L25,1 L32,9 L32,13 L26,18 L22,20 L15,20 L13,19 L13,17 L17,15 L14,14 L15,9 L7,10 L8,6 L-1,5 Z "
     transform="translate(28,121)"
     style="fill: #AD882E;"
     id="path3229" />
  <path
     d="M0,0 L5,5 L9,10 L23,19 L39,26 L59,34 L75,42 L76,43 L85,42 L81,46 L75,45 L56,35 L37,28 L29,25 L31,28 L31,31 L35,33 L34,38 L32,39 L13,30 L5,24 L6,21 L11,23 L19,28 L15,24 L21,26 L27,29 L29,29 L25,26 L24,22 L13,16 L3,7 L0,3 Z "
     transform="translate(14,155)"
     style="fill: #3C3C3A;"
     id="path3231" />
  <path
     d="M0,0 L11,2 L14,3 L15,6 L21,11 L24,16 L24,18 L22,18 L22,16 L18,16 L14,12 L12,12 L14,15 L11,16 L12,20 L7,22 L2,18 L-3,18 L-5,14 L-6,9 L-6,7 L-7,5 L0,4 L1,3 Z "
     transform="translate(127,105)"
     style="fill: #343129;"
     id="path3233" />
  <path
     d="M0,0 L3,0 L4,11 L10,23 L18,32 L24,36 L28,36 L28,34 L23,33 L17,28 L16,24 L24,30 L35,36 L37,41 L40,44 L35,43 L30,41 L32,43 L27,42 L18,36 L13,37 L6,31 L-1,19 L0,17 L2,18 L0,12 Z "
     transform="translate(4,141)"
     style="fill: #262624;"
     id="path3235" />
  <path
     d="M0,0 L3,3 L10,17 L10,20 L15,21 L19,25 L22,34 L22,46 L18,58 L10,63 L7,63 L9,59 L11,56 L13,56 L16,44 L16,35 L13,27 L8,25 L3,15 L1,5 Z "
     transform="translate(162,107)"
     style="fill: #424240;"
     id="path3237" />
  <path
     d="M0,0 L1,4 L0,13 L-5,19 L-10,22 L-13,22 L-12,35 L-10,44 L-8,50 L-8,57 L-6,57 L-4,66 L-5,68 L-3,73 L-3,78 L-5,76 L-10,62 L-12,57 L-13,46 L-17,32 L-17,22 L-14,21 L-13,17 L-16,16 L-14,15 L-8,15 L-3,7 L-1,1 Z "
     transform="translate(168,42)"
     style="fill: #3C3C3A;"
     id="path3239" />
  <path
     d="M0,0 L13,2 L24,5 L41,7 L43,9 L43,14 L40,18 L37,18 L37,16 L39,15 L30,14 L30,11 L23,13 L22,14 L13,14 L2,12 L6,10 L11,11 L9,9 L3,8 L3,7 L13,7 L13,4 L3,3 L0,2 Z "
     transform="translate(91,154)"
     style="fill: #96732C;"
     id="path3241" />
  <path
     d="M0,0 L16,0 L21,1 L21,2 L6,2 L2,5 L0,5 L-2,10 L-3,12 L0,11 L2,13 L7,8 L11,8 L11,10 L27,11 L27,12 L19,13 L9,13 L10,18 L5,21 L0,23 L-3,25 L-6,25 L-6,23 L-8,23 L-8,12 L-5,9 L-4,5 L-2,1 Z "
     transform="translate(67,70)"
     style="fill: #B9B8B5;"
     id="path3243" />
  <path
     d="M0,0 L8,3 L8,5 L12,7 L16,11 L22,14 L25,14 L25,22 L23,26 L21,27 L5,27 L4,24 L18,23 L17,21 L20,21 L20,24 L22,24 L22,19 L24,19 L24,16 L14,17 L7,14 L4,10 L-7,7 L-8,6 L-8,1 Z "
     transform="translate(96,53)"
     style="fill: #8F835E;"
     id="path3245" />
  <path
     d="M0,0 L2,1 L-4,9 L-8,12 L-10,12 L-10,10 L-19,15 L-31,21 L-39,24 L-40,22 L-30,17 L-30,13 L-35,14 L-49,20 L-60,24 L-69,28 L-71,28 L-71,30 L-69,31 L-77,32 L-76,29 L-51,17 L-36,12 L-22,5 L-20,6 L-23,9 L-25,9 L-25,14 L-15,9 L-7,3 L-4,3 Z "
     transform="translate(176,166)"
     style="fill: #2F2F2D;"
     id="path3247" />
  <path
     d="M0,0 L9,3 L30,11 L43,18 L45,25 L39,23 L23,15 L9,10 L6,11 L5,8 L3,7 Z "
     transform="translate(42,179)"
     style="fill: #100F0E;"
     id="path3249" />
  <path
     d="M0,0 L8,0 L9,7 L6,13 L4,20 L1,23 L-6,23 L-10,21 L-6,15 L-2,2 Z "
     style="fill: #080807;"
     id="path3251"
     transform="translate(173,40)" />
  <path
     d="M 12.923133,40.856447 H 5.5380724 L 4.6149401,47.291442 7.3843378,52.807151 9.2306022,59.242145 12,62 h 6.461927 l 3.69253,-1.838571 -3.69253,-5.515708 -3.692529,-11.950704 z"
     style="display:block;fill:#080807;stroke-width:0.921207"
     id="path3251-8" />
  <path
     d="M0,0 L2,0 L2,6 L3,7 L10,7 L11,12 L17,11 L17,9 L22,9 L22,7 L27,6 L31,7 L31,9 L33,10 L27,11 L30,13 L29,15 L24,14 L-2,15 L-13,13 L-13,11 L-7,10 L-6,5 L-5,8 L-4,9 L-1,6 Z "
     transform="translate(73,151)"
     style="fill: #B08929;"
     id="path3253" />
  <path
     d="M0,0 L4,2 L7,7 L20,8 L27,14 L27,17 L23,20 L19,19 L14,15 L6,15 L5,9 L0,8 L-2,6 L-1,1 Z "
     transform="translate(129,14)"
     style="fill: #B4962F;"
     id="path3255" />
  <path
     d="M0,0 L1,2 L-1,5 L-2,10 L0,10 L1,7 L6,6 L0,13 L-6,17 L-14,17 L-23,10 L-22,7 L-19,8 L-19,10 L-17,10 L-18,5 L-19,1 L-12,7 L-5,6 Z "
     transform="translate(102,13)"
     style="fill: #554F40;"
     id="path3257" />
  <path
     d="M0,0 L7,0 L6,7 L2,15 L-8,24 L-14,27 L-16,26 L-11,23 L-10,20 L-6,20 L-6,17 L-9,17 L-9,14 L-5,12 L-2,7 L-6,6 L-6,4 Z "
     transform="translate(164,147)"
     style="fill: #0F0B06;"
     id="path3259" />
  <path
     d="M0,0 L10,1 L19,5 L25,9 L29,12 L29,14 L31,14 L35,18 L35,20 L29,18 L26,14 L22,13 L22,10 L13,7 L10,5 L0,4 L0,6 L3,6 L4,11 L14,15 L14,17 L2,15 L-1,13 L-1,3 Z "
     transform="translate(105,1)"
     style="fill: #4F483D;"
     id="path3261" />
  <path
     d="M0,0 L5,0 L6,5 L2,8 L-1,9 L-3,15 L-9,15 L-11,20 L-16,20 L-17,13 L-12,12 L-9,7 L-7,5 L-4,5 L-3,2 Z "
     transform="translate(61,9)"
     style="fill: #B8982E;"
     id="path3263" />
  <path
     d="M0,0 L1,0 L2,7 L8,12 L8,25 L3,50 L-1,62 L-3,59 L-2,53 L3,34 L4,19 L4,13 L-1,9 L-2,5 L-1,5 Z "
     transform="translate(36,44)"
     style="fill: #4E4228;"
     id="path3265" />
  <path
     d="M0,0 L3,3 L6,7 L6,18 L9,15 L13,10 L16,9 L15,16 L13,20 L1,19 L-3,13 L-2,6 Z "
     transform="translate(70,33)"
     style="fill: #E0BE22;"
     id="path3267" />
  <path
     d="M0,0 L11,1 L15,3 L8,2 L11,7 L3,7 L3,9 L4,14 L4,17 L-1,16 L-11,7 L-13,3 L-8,5 L-7,5 L-7,3 L0,4 L2,3 Z "
     transform="translate(119,103)"
     style="fill: #5E5B52;"
     id="path3269" />
  <path
     d="M0,0 L2,1 L1,10 L5,10 L8,10 L10,8 L18,5 L17,3 L18,0 L24,0 L24,3 L21,4 L23,6 L18,9 L16,13 L9,17 L7,17 L6,14 L2,18 L2,13 L0,13 L-1,10 L-3,13 L-3,4 Z "
     transform="translate(58,83)"
     style="fill: #7B7A76;"
     id="path3271" />
  <path
     d="M0,0 L3,1 L6,4 L6,6 L9,6 L9,8 L14,8 L14,10 L21,11 L18,12 L18,14 L13,14 L14,17 L6,18 L5,13 L0,12 L-1,2 Z "
     transform="translate(77,146)"
     style="fill: #D5AC27;"
     id="path3273" />
  <path
     d="M0,0 L4,2 L5,5 L9,6 L17,7 L22,7 L22,10 L20,10 L20,15 L18,15 L18,12 L8,11 L7,10 L-9,9 L-10,7 L-6,7 L-6,3 L-2,3 L-1,5 Z "
     transform="translate(98,62)"
     style="fill: #1B1813;"
     id="path3275" />
  <path
     d="M0,0 L3,0 L2,4 L-8,10 L-19,16 L-31,19 L-31,17 L-35,16 L-23,12 L-7,5 Z "
     transform="translate(163,176)"
     style="fill: #515150;"
     id="path3277" />
  <path
     d="M0,0 L7,0 L7,2 L19,5 L20,6 L36,7 L37,9 L19,8 L14,7 L-4,7 L-5,11 L-7,16 L-10,18 L-8,8 L-3,3 Z "
     transform="translate(69,64)"
     style="fill: #5D5950;"
     id="path3279" />
  <path
     d="M0,0 L16,0 L21,1 L21,2 L6,2 L2,5 L0,5 L-2,10 L-3,12 L0,11 L2,13 L3,15 L1,15 L1,18 L-3,19 L-4,22 L-7,20 L-8,12 L-5,9 L-4,5 L-2,1 Z "
     transform="translate(67,70)"
     style="fill: #D6D6D4;"
     id="path3281" />
  <path
     d="M0,0 L2,0 L1,5 L-2,11 L-7,13 L-11,19 L-11,34 L-10,40 L-13,39 L-15,30 L-15,19 L-13,14 L-6,8 L-3,8 L-2,3 Z "
     transform="translate(16,119)"
     style="fill: #7A7A78;"
     id="path3283" />
  <path
     d="M0,0 L2,0 L2,5 L5,6 L-3,6 L-2,11 L3,12 L3,13 L-10,14 L-10,12 L-16,13 L-17,9 L-14,9 L-14,7 L-8,4 L-2,2 Z "
     transform="translate(91,48)"
     style="fill: #342F26;"
     id="path3285" />
  <path
     d="M0,0 L1,0 L2,14 L4,21 L5,21 L6,19 L9,23 L10,28 L13,32 L12,35 L8,31 L6,33 L3,28 L3,23 L1,23 L0,27 L-2,24 Z "
     transform="translate(97,83)"
     style="fill: #615F57;"
     id="path3287" />
  <path
     d="M0,0 L7,0 L10,2 L9,7 L5,13 L-1,13 L-3,12 L-1,1 Z "
     transform="translate(155,45)"
     style="fill: #CBB328;"
     id="path3289" />
  <path
     d="M0,0 L2,0 L6,8 L6,11 L11,12 L15,16 L18,25 L18,37 L15,40 L14,24 L11,17 L4,12 L0,4 Z "
     transform="translate(166,116)"
     style="fill: #7A7A77;"
     id="path3291" />
  <path
     d="M0,0 L2,0 L2,7 L4,8 L0,8 L-4,17 L2,17 L2,18 L-4,18 L-5,23 L-7,23 L-10,32 L-13,36 L-18,38 L-18,51 L-20,50 L-21,41 L-19,36 L-13,32 L-9,24 L-3,8 Z "
     transform="translate(32,103)"
     style="fill: #302C24;"
     id="path3293" />
  <path
     d="M0,0 L2,1 L0,3 L-7,6 L-10,9 L-15,12 L-18,17 L-27,18 L-32,19 L-37,20 L-32,13 L-20,14 L-18,10 L-13,6 L-9,4 Z "
     transform="translate(67,5)"
     style="fill: #30281A;"
     id="path3295" />
  <path
     d="M0,0 L5,1 L7,0 L13,0 L11,2 L8,2 L8,4 L14,4 L15,5 L15,13 L13,20 L10,22 L10,8 L5,6 L0,2 Z "
     transform="translate(20,57)"
     style="fill: #52514E;"
     id="path3297" />
  <path
     d="M0,0 L7,0 L10,9 L10,12 L4,13 L-1,9 L-3,5 L-2,1 Z "
     transform="translate(23,45)"
     style="fill: #BF992F;"
     id="path3299" />
  <path
     d="M0,0 L4,4 L5,6 L5,13 L2,15 L2,12 L0,12 L1,18 L-2,21 L-7,18 L-8,14 L-5,15 L-5,17 L-2,17 L-3,7 Z "
     transform="translate(52,66)"
     style="fill: #DAB029;"
     id="path3301" />
  <path
     d="M0,0 L8,0 L9,7 L6,13 L4,20 L1,23 L-5,23 L-5,21 L1,19 L3,12 L4,11 L4,6 L-2,5 L-1,1 Z "
     style="fill: #1D1D1D;"
     id="path3303"
     transform="translate(173,40)" />
  <path
     d="M0,0 L5,1 L9,7 L9,11 L-2,11 L-4,8 L-3,4 Z "
     transform="translate(157,32)"
     style="fill: #DEC71B;"
     id="path3305" />
  <path
     d="M0,0 L5,2 L15,8 L25,12 L26,14 L20,15 L4,7 L-1,3 Z "
     transform="translate(20,176)"
     style="fill: #696867;"
     id="path3307" />
  <path
     d="M0,0 L2,0 L2,9 L-1,13 L-6,13 L-6,11 L-4,11 L-3,6 L-8,12 L-12,11 L-5,1 Z "
     transform="translate(130,90)"
     style="fill: #DCB429;"
     id="path3309" />
  <path
     d="M0,0 L4,0 L5,8 L0,12 L-5,11 L-7,9 L-6,5 Z "
     transform="translate(36,22)"
     style="fill: #E0BF20;"
     id="path3311" />
  <path
     d="M0,0 L3,4 L11,15 L15,19 L11,21 L4,15 L-3,3 L-2,1 L0,2 Z "
     transform="translate(6,157)"
     style="fill: #363634;"
     id="path3313" />
  <path
     d="M0,0 L5,1 L8,5 L7,10 L-4,10 L-3,3 Z "
     transform="translate(24,32)"
     style="fill: #E1BF1D;"
     id="path3315" />
  <path
     d="M0,0 L4,1 L10,6 L10,9 L6,12 L2,11 L-2,8 L-2,2 Z "
     transform="translate(146,22)"
     style="fill: #E1C31E;"
     id="path3317" />
  <path
     d="M0,0 L1,4 L0,13 L-5,19 L-11,20 L-14,21 L-13,17 L-16,16 L-14,15 L-8,15 L-3,7 L-1,1 Z "
     transform="translate(168,42)"
     style="fill: #332E24;"
     id="path3319" />
  <path
     d="M0,0 L6,0 L7,1 L7,10 L3,11 L2,4 L-10,6 L-18,11 L-20,10 L-12,4 Z "
     transform="translate(74,1)"
     style="fill: #5B584D;"
     id="path3321" />
  <path
     d="M0,0 L7,2 L10,4 L12,8 L20,12 L19,14 L11,13 L7,11 L1,4 Z "
     transform="translate(96,56)"
     style="fill: #E9E8E4;"
     id="path3323" />
  <path
     d="M0,0 L7,1 L3,2 L6,5 L6,8 L13,7 L13,9 L15,11 L10,13 L9,9 L2,10 L-1,13 L-2,2 Z "
     transform="translate(67,55)"
     style="fill: #2A2319;"
     id="path3325" />
  <path
     d="M0,0 L6,1 L7,7 L10,8 L6,8 L7,10 L16,12 L17,15 L11,13 L4,12 L-3,3 Z "
     transform="translate(128,22)"
     style="fill: #4B3F25;"
     id="path3327" />
  <path
     d="M0,0 L5,0 L5,2 L-4,8 L-9,9 L-15,4 L-16,1 L-5,3 Z "
     transform="translate(99,207)"
     style="fill: #7B7B77;"
     id="path3329" />
</svg>
