<?xml version="1.0" encoding="UTF-8" standalone="no"?>
<svg
   id="svg"
   version="1.1"
   viewBox="0 0 203 208"
   style="display: block;"
   sodipodi:docname="edited_ravenclaw.svg"
   inkscape:version="1.1.2 (08b2f3d93c, 2022-04-05)"
   xmlns:inkscape="http://www.inkscape.org/namespaces/inkscape"
   xmlns:sodipodi="http://sodipodi.sourceforge.net/DTD/sodipodi-0.dtd"
   xmlns="http://www.w3.org/2000/svg"
   xmlns:svg="http://www.w3.org/2000/svg">
  <defs
     id="defs4540" />
  <sodipodi:namedview
     id="namedview4538"
     pagecolor="#ffffff"
     bordercolor="#666666"
     borderopacity="1.0"
     inkscape:pageshadow="2"
     inkscape:pageopacity="0.0"
     inkscape:pagecheckerboard="0"
     showgrid="false"
     inkscape:zoom="1.8085616"
     inkscape:cx="129.66105"
     inkscape:cy="94.826741"
     inkscape:window-width="1286"
     inkscape:window-height="704"
     inkscape:window-x="74"
     inkscape:window-y="27"
     inkscape:window-maximized="1"
     inkscape:current-layer="svg" />
  <path
     d="M 37.416633,36.391612 H 155.34019 V 164.43846 H 37.416633 Z"
     style="display:block;fill:#352118;stroke-width:0.598006"
     id="path4321-4-8" />
  <path
     d="m 107,50.95315 h 39 V 179 h -39 z"
     style="display:block;fill:#352118;stroke-width:0.343904"
     id="path4321-4-8-8" />
  <path
     d="M 89.191729,63.435222 H 132.73081 V 185.31523 H 89.191729 Z"
     style="display:block;fill:#352118;stroke-width:0.354508"
     id="path4321-4-8-8-8" />
  <path
     d="M0,0 L5,1 L4,38 L7,38 L9,34 L10,33 L19,33 L23,38 L24,44 L45,44 L48,42 L51,36 L55,32 L62,32 L64,33 L67,39 L68,31 L68,14 L67,0 L72,0 L75,4 L78,12 L78,30 L79,24 L80,2 L84,2 L88,9 L88,27 L83,41 L90,27 L92,11 L96,12 L98,18 L98,31 L102,23 L104,15 L108,14 L110,16 L110,29 L105,40 L110,32 L113,24 L117,24 L118,26 L118,36 L114,44 L106,53 L115,48 L122,40 L127,32 L130,33 L130,41 L128,47 L122,55 L119,58 L124,56 L131,52 L135,53 L134,60 L132,60 L131,63 L121,68 L118,69 L131,69 L132,74 L127,78 L120,81 L129,81 L130,86 L125,91 L121,92 L122,93 L122,98 L118,101 L102,103 L112,105 L113,110 L111,112 L107,113 L96,113 L105,116 L106,117 L106,122 L104,123 L94,123 L83,117 L81,114 L90,113 L81,107 L76,105 L77,109 L70,107 L66,104 L66,102 L72,101 L81,104 L83,105 L83,103 L94,104 L94,102 L82,99 L80,98 L80,96 L74,95 L70,93 L71,88 L71,85 L74,79 L76,79 L76,74 L79,73 L79,69 L84,69 L83,66 L81,65 L81,63 L79,63 L79,61 L83,58 L88,58 L87,63 L90,65 L89,68 L87,69 L85,73 L98,73 L98,71 L96,70 L101,68 L104,68 L104,66 L97,66 L96,60 L90,60 L91,56 L89,55 L87,51 L84,50 L84,48 L86,48 L87,43 L86,41 L83,45 L79,45 L80,50 L80,52 L83,51 L81,56 L77,56 L77,54 L73,53 L68,55 L68,60 L71,65 L71,77 L69,83 L67,83 L65,87 L59,92 L53,95 L46,94 L46,100 L45,102 L41,100 L42,87 L39,87 L38,93 L36,99 L33,101 L32,115 L28,117 L26,114 L24,116 L21,116 L19,111 L17,113 L16,110 L16,97 L12,95 L4,90 L1,87 L-2,81 L-2,72 L1,65 L5,56 L5,49 L3,43 L4,52 L-2,52 L-2,54 L-5,54 L-5,57 L-9,56 L-10,53 L-12,54 L-11,58 L-4,61 L-4,62 L-14,63 L-15,60 L-21,55 L-23,56 L-19,60 L-24,59 L-28,52 L-29,55 L-34,53 L-39,48 L-44,41 L-46,36 L-46,26 L-42,24 L-40,26 L-36,36 L-29,45 L-31,41 L-36,34 L-38,27 L-38,18 L-36,15 L-32,16 L-28,27 L-25,32 L-26,28 L-26,17 L-23,12 L-20,12 L-18,26 L-13,38 L-9,44 L-10,50 L-7,52 L-8,48 L-6,48 L-14,32 L-16,26 L-16,10 L-12,2 L-8,2 L-7,22 L-5,9 Z "
     transform="translate(65,8)"
     style="fill: #6F4F3E;"
     id="path4325" />
  <path
     id="path4327"
     style="fill:#311c13"
     d="M 32 0 L 27 6 L 20 18 L 17 30 L 18 42 L 19 42 L 20 34 L 23 33 L 25 38 L 30 47 L 37 55 L 38 53 L 31 44 L 28 35 L 28 26 L 29 24 L 32 24 L 34 31 L 38 39 L 41 42 L 40 36 L 40 25 L 42 21 L 45 20 L 45 30 L 50 45 L 56 54 L 54 54 L 55 59 L 59 61 L 57 56 L 59 56 L 59 54 L 56 49 L 50 34 L 50 18 L 53 11 L 56 10 L 57 30 L 59 32 L 60 20 L 65 9 L 69 9 L 69 46 L 72 46 L 75 42 L 84 41 L 86 45 L 89 52 L 92 53 L 110 53 L 112 52 L 115 47 L 120 41 L 129 41 L 131 50 L 132 50 L 134 39 L 134 22 L 132 8 L 138 10 L 142 20 L 142 40 L 143 40 L 145 32 L 146 10 L 148 10 L 152 17 L 152 35 L 147 48 L 148 50 L 154 40 L 157 30 L 157 19 L 160 20 L 162 26 L 162 37 L 163 41 L 167 33 L 170 23 L 174 24 L 174 37 L 171 43 L 169 49 L 171 48 L 176 40 L 178 32 L 182 32 L 183 44 L 184 44 L 185 39 L 185 29 L 182 18 L 177 8 L 171 0 L 152 0 L 147 1 L 127 9 L 110 11 L 104 20 L 100 24 L 100 22 L 91 11 L 70 9 L 68 7 L 56 2 L 49 1 L 48 2 L 42 3 L 38 0 L 32 0 z " />
  <path
     d="M0,0 L5,0 L8,4 L11,12 L11,30 L12,24 L13,2 L17,2 L21,9 L21,27 L16,41 L23,27 L25,11 L29,12 L31,18 L31,31 L35,23 L37,15 L41,14 L43,16 L43,29 L38,40 L43,32 L46,24 L50,24 L51,26 L51,36 L47,44 L39,53 L48,48 L55,40 L60,32 L63,33 L63,41 L61,47 L55,55 L52,58 L57,56 L64,52 L68,53 L67,60 L65,60 L64,63 L54,68 L51,69 L64,69 L65,74 L60,78 L53,81 L62,81 L63,86 L58,91 L54,92 L55,93 L55,98 L51,101 L35,103 L45,105 L46,110 L44,112 L40,113 L29,113 L38,116 L39,117 L39,122 L37,123 L27,123 L16,117 L14,114 L23,113 L14,107 L9,105 L10,109 L3,107 L-1,104 L-1,102 L5,101 L14,104 L16,105 L16,103 L27,104 L27,102 L15,99 L13,98 L13,96 L7,95 L3,93 L4,88 L4,85 L7,79 L9,79 L9,74 L12,73 L12,69 L17,69 L16,66 L14,65 L14,63 L12,63 L12,61 L16,58 L21,58 L20,63 L23,65 L22,68 L20,69 L18,73 L31,73 L31,71 L29,70 L34,68 L37,68 L37,66 L30,66 L29,60 L23,60 L24,56 L22,55 L20,51 L17,50 L17,48 L19,48 L20,43 L19,41 L16,45 L12,45 L13,50 L13,52 L16,51 L14,56 L10,56 L10,54 L6,53 L1,55 L1,60 L4,65 L4,77 L2,83 L0,83 L-2,87 L-8,92 L-14,95 L-17,94 L-5,86 L0,80 L1,77 L1,66 L-2,60 L-2,46 L0,39 L1,31 L1,14 Z "
     transform="translate(132,8)"
     style="fill: #89654C;"
     id="path4329" />
  <path
     d="M0,0 L4,1 L8,9 L14,14 L16,11 L21,18 L28,22 L29,18 L33,24 L33,26 L37,26 L33,22 L37,22 L40,24 L40,26 L43,27 L43,30 L52,28 L54,27 L54,30 L49,32 L52,33 L51,39 L37,39 L37,43 L39,43 L37,48 L50,49 L50,53 L55,53 L55,57 L57,58 L57,61 L59,61 L58,66 L58,67 L62,67 L62,72 L55,77 L53,77 L53,79 L59,78 L60,75 L62,75 L62,77 L65,76 L66,80 L60,85 L55,90 L45,97 L34,98 L33,93 L35,90 L25,90 L23,88 L24,83 L28,81 L18,79 L16,78 L16,73 L18,71 L25,70 L14,69 L9,66 L7,62 L9,60 L-1,54 L-2,50 L0,48 L6,49 L15,49 L3,46 L-3,41 L-2,36 L10,36 L2,33 L-3,29 L-6,24 L-6,20 L0,21 L5,24 L8,24 L2,16 L-1,10 L-1,1 Z "
     transform="translate(8,41)"
     style="fill: #603F2F;"
     id="path4331" />
  <path
     d="M0,0 L7,0 L9,1 L12,10 L11,14 L11,28 L14,34 L14,45 L11,51 L3,58 L-4,62 L-9,62 L-11,60 L-10,55 L-1,55 L-2,50 L-9,45 L-10,41 L-19,39 L-28,40 L-31,41 L-31,44 L-33,44 L-34,49 L-39,63 L-50,57 L-55,48 L-55,39 L-49,27 L-49,14 L-51,9 L-51,6 L-48,6 L-46,2 L-45,1 L-36,1 L-32,6 L-31,12 L-10,12 L-7,10 L-4,4 Z "
     transform="translate(120,40)"
     style="fill: #0379A6;"
     id="path4333" />
  <path
     d="M0,0 L5,2 L21,3 L21,4 L9,6 L7,12 L22,14 L19,16 L15,18 L16,23 L26,24 L25,31 L31,32 L33,38 L37,43 L42,46 L50,52 L53,53 L56,54 L61,55 L62,57 L68,57 L71,55 L70,60 L75,61 L75,54 L72,54 L72,45 L74,45 L75,48 L73,48 L74,52 L77,54 L76,91 L79,91 L80,87 L83,88 L83,83 L85,82 L86,89 L95,91 L94,93 L73,93 L64,89 L61,86 L61,80 L40,70 L29,62 L18,52 L16,48 L10,46 L10,48 L7,49 L7,54 L3,52 L-5,42 L-10,33 L-9,26 L-6,20 L-10,20 L-2,6 L0,2 Z "
     transform="translate(17,107)"
     style="fill: #23130D;"
     id="path4335" />
  <path
     d="M0,0 L5,4 L4,0 L8,4 L20,24 L19,29 L13,40 L1,54 L-4,58 L-7,58 L-8,54 L-16,55 L-29,65 L-45,74 L-51,76 L-51,83 L-61,90 L-71,93 L-88,93 L-101,89 L-109,83 L-109,79 L-110,76 L-127,68 L-138,60 L-140,53 L-149,46 L-155,46 L-156,51 L-160,49 L-168,40 L-175,29 L-175,15 L-169,13 L-171,19 L-173,22 L-172,29 L-165,40 L-159,47 L-157,48 L-158,43 L-154,42 L-154,40 L-147,42 L-143,48 L-135,55 L-127,61 L-112,69 L-102,74 L-102,80 L-97,84 L-91,86 L-70,86 L-79,83 L-80,77 L-81,82 L-84,82 L-85,85 L-88,85 L-88,48 L-91,46 L-91,42 L-89,42 L-88,39 L-87,42 L-85,43 L-85,37 L-83,37 L-83,43 L-78,45 L-79,39 L-76,42 L-75,49 L-79,48 L-78,54 L-76,56 L-75,60 L-74,58 L-71,58 L-68,64 L-65,78 L-63,79 L-63,82 L-65,82 L-65,84 L-59,81 L-58,78 L-58,73 L-53,71 L-48,66 L-42,64 L-40,60 L-37,60 L-38,56 L-34,54 L-31,54 L-31,56 L-26,52 L-24,49 L-20,47 L-12,41 L-5,41 L0,43 L-1,39 L4,38 L6,34 L10,27 L9,20 L4,13 L5,11 L4,8 L0,2 Z "
     transform="translate(181,113)"
     style="fill: #3C251C;"
     id="path4337" />
  <path
     d="M0,0 L2,1 L2,8 L3,12 L-2,8 L4,17 L3,19 L5,23 L8,28 L8,33 L1,44 L-3,45 L-3,49 L-12,48 L-16,49 L-24,55 L-27,56 L-32,62 L-34,62 L-34,60 L-40,61 L-41,52 L-34,45 L-37,45 L-36,41 L-32,36 L-31,32 L-24,30 L-25,26 L-28,23 L-13,23 L-14,18 L-24,14 L-22,13 L-12,13 L-7,11 L-7,7 L-20,4 L-20,3 L-5,2 Z M-77,16 L-76,16 L-76,35 L-74,28 L-73,20 L-71,24 L-69,30 L-70,35 L-74,37 L-75,62 L-72,62 L-72,64 L-70,64 L-70,62 L-62,59 L-53,60 L-54,62 L-49,60 L-46,60 L-46,58 L-42,57 L-41,59 L-42,61 L-40,62 L-40,66 L-44,68 L-47,71 L-53,75 L-55,75 L-56,78 L-61,79 L-60,86 L-65,90 L-68,90 L-68,88 L-66,88 L-68,85 L-69,85 L-73,67 L-74,64 L-77,64 L-77,70 L-79,66 L-81,62 L-82,59 L-83,53 L-78,55 L-81,47 L-81,51 L-86,49 L-86,43 L-88,43 L-88,49 L-91,48 L-90,44 L-93,44 L-96,38 L-95,27 L-93,28 L-92,31 L-88,32 L-86,25 L-84,26 L-84,33 L-80,33 L-79,31 L-78,17 Z "
     transform="translate(184,107)"
     style="fill: #21110B;"
     id="path4339" />
  <path
     d="M0,0 L21,2 L30,13 L30,15 L34,11 L40,2 L57,0 L62,0 L64,13 L64,30 L62,41 L61,41 L59,32 L50,32 L45,38 L42,43 L40,44 L22,44 L19,43 L16,36 L14,32 L5,33 L2,37 L-1,37 L-1,6 Z "
     transform="translate(70,9)"
     style="fill: #2B1A10;"
     id="path4341" />
  <path
     d="M0,0 L3,1 L1,6 L3,8 L9,8 L7,10 L2,13 L8,14 L24,14 L25,19 L20,23 L13,26 L22,26 L23,31 L18,36 L14,37 L15,38 L15,43 L11,46 L-5,48 L5,50 L6,55 L4,57 L0,58 L-11,58 L-2,61 L-1,62 L-1,67 L-3,68 L-13,68 L-24,62 L-26,59 L-17,58 L-26,52 L-31,50 L-30,54 L-37,52 L-41,49 L-41,47 L-35,46 L-26,49 L-24,50 L-24,48 L-13,49 L-13,47 L-25,44 L-27,43 L-27,41 L-33,40 L-37,38 L-36,33 L-36,30 L-33,24 L-31,24 L-31,19 L-28,18 L-28,14 L-23,14 L-24,11 L-26,10 L-26,8 L-28,8 L-28,6 L-24,3 L-19,3 L-20,8 L-17,10 L-18,13 L-20,14 L-22,18 L-9,18 L-9,16 L-11,15 L-6,13 L-1,13 L-2,9 L-6,8 L-5,4 L-5,1 Z "
     transform="translate(172,63)"
     style="fill: #6F4D3B;"
     id="path4343" />
  <path
     d="M0,0 L2,3 L0,8 L-2,8 L-2,10 L3,11 L2,13 L5,16 L4,20 L10,19 L11,24 L18,26 L18,28 L12,31 L12,33 L7,34 L-1,34 L-5,32 L0,32 L1,28 L3,27 L3,25 L-1,23 L1,23 L0,20 L1,19 L-4,20 L-7,21 L-7,23 L-5,23 L-5,25 L-1,27 L-2,29 L-7,29 L-6,33 L-10,34 L-10,39 L-12,40 L-14,45 L-14,48 L-16,49 L-16,53 L-6,56 L-6,58 L4,60 L8,62 L8,64 L-3,63 L-3,65 L-14,62 L-20,62 L-20,64 L-16,66 L-9,69 L-10,65 L-4,67 L5,73 L2,74 L-4,75 L6,81 L6,83 L10,86 L9,90 L2,91 L1,95 L1,92 L-3,92 L-4,94 L-17,93 L-17,95 L-22,94 L-28,89 L-28,86 L-26,86 L-26,88 L-21,90 L-20,85 L-13,86 L-12,84 L-6,88 L-11,84 L-11,82 L-2,83 L1,83 L-8,77 L-14,74 L-16,71 L-16,75 L-21,75 L-25,71 L-25,69 L-20,68 L-24,63 L-22,62 L-25,59 L-26,54 L-31,54 L-27,51 L-20,45 L-19,43 L-17,43 L-16,37 L-16,25 L-19,20 L-19,5 L-17,3 L-17,14 L-12,12 L-8,16 L-5,15 L-3,11 L-8,13 L-7,5 L-3,4 Z M-26,55 Z "
     transform="translate(151,48)"
     style="fill: #4B2F23;"
     id="path4345" />
  <path
     d="M0,0 L7,0 L11,2 L8,3 L8,7 L12,8 L11,11 L21,9 L25,9 L25,14 L18,19 L16,19 L16,21 L22,20 L23,17 L25,17 L25,19 L28,18 L29,22 L23,27 L18,32 L8,39 L-3,40 L-4,35 L-2,32 L-12,32 L-14,30 L-13,25 L-9,23 L-19,21 L-21,20 L-21,15 L-19,13 L-12,12 L-23,11 L-28,8 L-30,4 L-29,3 L-9,2 Z "
     transform="translate(45,99)"
     style="fill: #503021;"
     id="path4347" />
  <path
     d="M0,0 L8,0 L14,8 L19,18 L22,29 L22,39 L21,44 L20,44 L19,32 L15,32 L13,40 L8,48 L6,49 L8,43 L11,37 L11,24 L7,23 L4,33 L0,41 L-1,37 L-1,26 L-3,20 L-6,19 L-6,30 L-9,40 L-15,50 L-16,48 L-11,35 L-11,17 L-15,10 L-17,10 L-18,32 L-20,40 L-21,40 L-21,20 L-25,10 L-30,8 L-26,6 L-16,1 L-7,2 L-7,4 Z "
     transform="translate(163,0)"
     style="fill: #301A12;"
     id="path4349" />
  <path
     d="M0,0 L9,1 L16,3 L18,8 L24,12 L25,17 L23,18 L15,18 L16,23 L16,30 L15,32 L11,30 L12,17 L9,17 L8,23 L6,29 L3,31 L2,45 L-2,47 L-4,44 L-6,46 L-9,46 L-11,41 L-13,43 L-14,40 L-14,27 L-16,26 L-12,16 L-8,6 L-6,6 L-6,3 Z "
     transform="translate(95,78)"
     style="fill: #6F4D3D;"
     id="path4353" />
  <path
     d="M0,0 L6,0 L6,2 L8,2 L12,7 L16,8 L24,8 L29,4 L31,1 L35,1 L34,7 L32,13 L37,10 L40,19 L38,24 L33,28 L31,28 L31,30 L35,30 L35,28 L39,25 L41,25 L41,31 L39,34 L34,35 L31,36 L28,32 L23,31 L21,29 L20,25 L11,23 L0,22 L0,17 L-3,18 L-3,16 L-9,14 L-9,11 L-11,11 L-10,5 L-7,6 L-7,8 L-5,8 L-5,10 L0,11 L6,13 L11,13 L2,11 L-3,6 L-2,2 L0,2 Z M0,16 Z "
     transform="translate(90,56)"
     style="fill: #0291BD;"
     id="path4355" />
  <path
     d="M0,0 L3,0 L5,14 L10,26 L13,31 L12,33 L9,29 L8,32 L11,38 L7,36 L2,33 L2,36 L4,36 L6,41 L-1,41 L-6,37 L-14,27 L-18,19 L-19,14 L-21,14 L-19,23 L-15,28 L-11,35 L-8,39 L-8,41 L-13,40 L-21,29 L-23,24 L-23,14 L-19,12 L-17,14 L-13,24 L-6,33 L-8,29 L-13,22 L-15,15 L-15,6 L-13,3 L-9,4 L-5,15 L-2,20 L-3,16 L-3,5 Z "
     transform="translate(42,20)"
     style="fill: #99745A;"
     id="path4357" />
  <path
     d="M0,0 L5,4 L4,0 L8,4 L20,24 L19,29 L13,40 L1,54 L-4,58 L-7,58 L-8,54 L-16,55 L-20,56 L-23,55 L-13,46 L-9,44 L-14,46 L-26,57 L-31,59 L-32,58 L-36,58 L-37,60 L-38,56 L-34,54 L-31,54 L-31,56 L-26,52 L-24,49 L-20,47 L-12,41 L-5,41 L0,43 L-1,39 L4,38 L6,34 L10,27 L9,20 L4,13 L5,11 L4,8 L0,2 Z "
     transform="translate(181,113)"
     style="fill: #38241A;"
     id="path4359" />
  <path
     d="M0,0 L2,0 L2,3 L12,0 L14,4 L18,3 L19,7 L25,7 L28,9 L29,12 L29,23 L32,23 L32,30 L27,30 L27,27 L26,26 L21,27 L18,27 L18,24 L9,24 L8,23 L5,22 L0,17 L-7,9 L-9,6 L-8,1 Z "
     transform="translate(60,138)"
     style="fill: #075270;"
     id="path4361" />
  <path
     d="M0,0 L4,1 L4,6 L-2,13 L-6,13 L-6,16 L-18,22 L-30,28 L-37,28 L-38,26 L-38,7 L-29,4 L-27,6 L-22,7 L-22,3 L-13,4 L-9,3 L-2,3 Z "
     transform="translate(148,139)"
     style="fill: #066081;"
     id="path4363" />
  <path
     d="M0,0 L1,2 L-3,9 L-2,16 L5,27 L11,34 L13,35 L12,30 L16,29 L16,27 L23,29 L27,35 L35,42 L43,48 L58,56 L68,61 L68,67 L73,71 L79,73 L104,73 L104,77 L101,77 L101,79 L99,80 L82,80 L69,76 L61,70 L61,66 L60,63 L43,55 L32,47 L30,40 L21,33 L15,33 L14,38 L10,36 L2,27 L-5,16 L-5,2 Z "
     transform="translate(11,126)"
     style="fill: #553D32;"
     id="path4365" />
  <path
     d="M0,0 L7,0 L10,1 L24,2 L20,4 L28,6 L27,12 L32,13 L29,15 L36,18 L36,21 L32,23 L16,24 L5,21 L0,17 L1,13 L5,12 L8,13 L17,13 L5,10 L-1,5 Z "
     transform="translate(6,77)"
     style="fill: #866A60;"
     id="path4367" />
  <path
     d="M0,0 L9,4 L14,11 L14,13 L25,13 L26,9 L29,7 L30,4 L37,1 L45,1 L47,3 L45,3 L45,5 L43,6 L49,9 L50,12 L48,12 L48,10 L39,10 L34,16 L31,21 L29,22 L11,22 L8,21 L5,14 L2,9 L-1,6 L-5,4 L-4,1 Z "
     transform="translate(81,31)"
     style="fill: #4A3428;"
     id="path4369" />
  <path
     d="M0,0 L5,1 L4,6 L0,10 L-4,11 L-3,12 L-3,17 L-7,20 L-11,21 L-26,21 L-32,18 L-32,16 L-21,15 L-34,12 L-40,8 L-37,7 L-37,9 L-29,10 L-28,6 L-26,5 L-17,5 L-17,3 L-20,2 L-4,1 Z "
     transform="translate(190,89)"
     style="fill: #9C775D;"
     id="path4371" />
  <path
     d="M0,0 L8,0 L14,8 L19,18 L19,23 L17,21 L14,15 L12,14 L11,17 L9,16 L8,9 L6,9 L9,19 L5,19 L3,22 L-1,20 L-1,18 L1,18 L0,14 L-9,14 L-10,11 L-14,9 L-18,9 L-19,18 L-22,17 L-26,9 L-30,7 L-20,3 L-16,1 L-7,2 L-7,4 Z "
     transform="translate(163,0)"
     style="fill: #432A1B;"
     id="path4373" />
  <path
     d="M0,0 L9,1 L16,3 L18,8 L24,12 L23,14 L19,12 L14,12 L14,15 L7,16 L7,21 L4,25 L0,23 L1,20 L-1,18 L-4,20 L-5,12 L-7,12 L-6,28 L-13,29 L-13,19 L-8,6 L-6,6 L-6,3 Z "
     transform="translate(95,78)"
     style="fill: #8F6A56;"
     id="path4375" />
  <path
     d="M0,0 L9,0 L12,5 L11,6 L10,18 L8,18 L7,15 L6,18 L4,18 L3,24 L3,29 L5,29 L5,32 L-7,38 L-7,48 L-6,51 L-4,51 L-4,54 L-2,54 L0,50 L4,48 L3,50 L5,52 L2,56 L8,53 L6,62 L-5,56 L-10,47 L-10,38 L-4,26 L-4,13 L-6,8 L-6,5 L-3,5 L-1,1 Z "
     transform="translate(75,41)"
     style="fill: #015A7D;"
     id="path4377" />
  <path
     d="M0,0 L5,1 L5,41 L7,46 L7,59 L1,71 L1,80 L5,87 L5,89 L10,91 L15,94 L15,96 L10,94 L4,90 L1,87 L-2,81 L-2,72 L1,65 L5,56 L5,49 L2,36 L-3,38 L-5,29 L-6,23 L-6,12 Z "
     transform="translate(65,8)"
     style="fill: #8E6E55;"
     id="path4379" />
  <path
     d="M0,0 L11,1 L11,2 L3,3 L5,6 L3,8 L15,9 L15,7 L19,8 L19,11 L23,17 L24,19 L18,20 L14,22 L11,20 L8,23 L7,26 L11,28 L11,30 L14,31 L14,32 L5,33 L2,37 L-1,37 L-1,6 Z "
     transform="translate(70,9)"
     style="fill: #2A1911;"
     id="path4381" />
  <path
     d="M0,0 L6,0 L11,3 L16,2 L17,1 L24,2 L36,7 L33,9 L27,9 L23,8 L18,11 L16,11 L16,8 L13,10 L11,9 L11,11 L13,12 L6,13 L5,18 L2,21 L0,21 L0,13 L-4,14 L-9,22 L-11,22 L-13,31 L-14,31 L-13,22 L-9,12 L-1,1 Z "
     transform="translate(32,0)"
     style="fill: #422B1E;"
     id="path4383" />
  <path
     d="M0,0 L18,0 L27,11 L27,13 L31,9 L37,0 L52,0 L56,2 L51,4 L52,6 L44,7 L44,5 L39,6 L41,7 L39,12 L37,13 L37,10 L30,19 L26,19 L18,9 L17,12 L14,7 L15,6 L12,5 L12,7 L-1,7 L0,3 Z "
     transform="translate(73,11)"
     style="fill: #563F33;"
     id="path4385" />
  <path
     d="M0,0 L5,5 L10,11 L14,9 L19,6 L20,9 L27,10 L28,14 L24,16 L21,16 L20,20 L17,22 L16,25 L5,25 L0,18 L0,16 L-5,15 L-9,13 L-12,12 L-9,9 L-5,11 L-2,10 L-1,8 L3,8 L0,4 Z M26,11 Z "
     transform="translate(90,19)"
     style="fill: #3F2A1C;"
     id="path4387" />
  <path
     d="M0,0 L4,2 L6,4 L12,6 L13,11 L17,12 L30,20 L34,23 L33,27 L26,28 L25,32 L25,29 L21,29 L20,31 L7,30 L7,32 L2,31 L-4,26 L-4,23 L-2,23 L-2,25 L3,27 L4,22 L11,23 L12,21 L18,25 L13,21 L13,19 L22,20 L25,20 L16,14 L10,11 L8,8 L8,12 L3,12 L-1,8 L-1,6 L4,5 Z "
     transform="translate(127,111)"
     style="fill: #584032;"
     id="path4389" />
  <path
     d="M0,0 L7,0 L9,1 L12,10 L11,14 L11,28 L14,34 L14,45 L11,51 L3,58 L-4,62 L-9,62 L-11,60 L-10,55 L-1,55 L-2,50 L-4,47 L0,49 L1,52 L6,49 L9,49 L11,46 L11,33 L7,24 L6,10 L1,7 L-3,7 L-2,12 L-1,16 L-4,14 L-10,13 L-7,10 L-4,4 Z "
     transform="translate(120,40)"
     style="fill: #09546D;"
     id="path4391" />
  <path
     d="M0,0 L1,3 L8,3 L14,5 L15,11 L18,12 L18,19 L16,21 L13,21 L12,19 L5,17 L-3,16 L-10,10 L-10,5 L-7,5 L-7,7 L-4,7 L-3,2 Z "
     transform="translate(69,142)"
     style="fill: #027AA1;"
     id="path4393" />
  <path
     d="M0,0 L2,2 L2,13 L9,24 L18,34 L20,35 L20,30 L21,29 L27,29 L38,38 L38,43 L29,38 L24,38 L22,42 L18,41 L11,33 L4,25 L-3,14 L-4,7 Z "
     transform="translate(5,129)"
     style="fill: #3C281E;"
     id="path4395" />
  <path
     d="M0,0 L3,1 L4,21 L6,31 L6,36 L4,39 L2,41 L-3,31 L-5,25 L-5,9 L-1,1 Z "
     transform="translate(54,9)"
     style="fill: #A57F5F;"
     id="path4397" />
  <path
     d="M0,0 L2,0 L8,10 L7,15 L1,26 L-11,40 L-16,44 L-19,44 L-20,40 L-26,39 L-25,37 L-19,38 L-16,39 L-14,34 L-4,22 L1,13 L0,6 L-2,1 Z "
     transform="translate(193,127)"
     style="fill: #412C22;"
     id="path4399" />
  <path
     d="M0,0 L3,0 L3,13 L6,16 L4,16 L3,20 L1,21 L0,15 L-1,16 L-1,25 L0,25 L0,33 L-3,35 L-3,31 L-6,31 L-6,36 L-8,36 L-8,41 L-10,42 L-13,41 L-14,38 L-14,30 L-12,27 L-11,29 L-8,28 L-7,14 L-3,11 L-3,6 L-1,6 Z "
     transform="translate(104,95)"
     style="fill: #553628;"
     id="path4401" />
  <path
     d="M0,0 L4,1 L8,9 L15,16 L22,21 L20,22 L15,19 L19,23 L23,26 L22,29 L15,28 L6,22 L0,12 L-1,10 L-1,1 Z "
     transform="translate(8,41)"
     style="fill: #93725C;"
     id="path4403" />
  <path
     d="M0,0 L7,0 L8,5 L3,9 L-4,12 L-22,12 L-23,9 L-22,5 L-17,4 L-18,2 Z "
     transform="translate(189,77)"
     style="fill: #9E7960;"
     id="path4405" />
  <path
     d="M0,0 L3,1 L1,6 L3,8 L9,8 L7,10 L2,13 L12,15 L12,16 L0,17 L2,19 L-5,19 L-5,25 L9,26 L14,27 L14,28 L1,29 L1,31 L-8,32 L-10,33 L-12,36 L-13,32 L-12,30 L-6,29 L-11,27 L-9,25 L-11,22 L-11,18 L-9,18 L-9,16 L-11,15 L-6,13 L-1,13 L-2,9 L-6,8 L-5,4 L-5,1 Z "
     transform="translate(172,63)"
     style="fill: #7C5440;"
     id="path4407" />
  <path
     d="M0,0 L1,2 L4,2 L4,15 L2,15 L0,7 L-3,12 L-5,12 L-6,17 L-3,17 L-2,13 L0,13 L-2,22 L-4,23 L-6,19 L-13,21 L-15,21 L-15,18 L-25,20 L-24,25 L-21,29 L-21,31 L-25,29 L-29,24 L-29,18 L-23,16 L-17,13 L-12,12 L-12,15 L-8,11 L-6,11 L-5,6 L-2,1 Z "
     transform="translate(77,120)"
     style="fill: #3B2F29;"
     id="path4409" />
  <path
     d="M0,0 L4,1 L5,2 L5,15 L-2,28 L-7,32 L-8,26 L-12,28 L-10,23 L-3,9 L-1,1 Z "
     transform="translate(170,22)"
     style="fill: #A0795D;"
     id="path4411" />
  <path
     d="M0,0 L6,1 L20,8 L30,12 L31,17 L16,16 L8,13 L3,9 L0,4 Z "
     transform="translate(2,61)"
     style="fill: #9F7860;"
     id="path4413" />
  <path
     d="M0,0 L7,0 L10,1 L24,2 L20,4 L28,6 L27,12 L11,12 L3,9 L-1,5 Z "
     transform="translate(6,77)"
     style="fill: #A07A62;"
     id="path4415" />
  <path
     d="M0,0 L7,0 L7,2 L2,4 L2,2 L-1,3 L-2,7 L0,8 L-7,11 L-23,11 L-28,8 L-30,4 L-29,3 L-9,2 Z "
     transform="translate(45,99)"
     style="fill: #986F56;"
     id="path4417" />
  <path
     d="M0,0 L2,1 L3,5 L14,9 L14,10 L6,10 L6,15 L9,17 L2,16 L-1,15 L-1,13 L-3,14 L8,20 L8,21 L1,21 L0,23 L-1,18 L-4,18 L-2,22 L-6,22 L-8,18 L-12,16 L-7,16 L-9,11 L-5,11 L-5,7 L-9,5 L-1,5 L-2,1 Z "
     transform="translate(154,83)"
     style="fill: #4F3021;"
     id="path4419" />
  <path
     d="M0,0 L3,1 L3,4 L-4,4 L-4,10 L0,9 L-4,13 L-12,17 L-22,17 L-24,15 L-23,10 L-14,7 L-5,3 Z "
     transform="translate(55,114)"
     style="fill: #735344;"
     id="path4421" />
  <path
     d="M0,0 L5,0 L-1,7 L-2,12 L-1,15 L-2,17 L-4,17 L-4,14 L-8,14 L-8,16 L-18,19 L-18,17 L-24,16 L-23,14 L-21,14 L-20,11 L-6,4 L-4,4 L-4,1 Z "
     transform="translate(146,151)"
     style="fill: #413532;"
     id="path4423" />
  <path
     d="M0,0 L8,1 L12,2 L26,3 L21,8 L18,10 L13,11 L6,11 L1,9 L-2,7 L-2,1 Z "
     transform="translate(114,150)"
     style="fill: #027DA6;"
     id="path4425" />
  <path
     d="M0,0 L8,0 L14,8 L19,18 L19,23 L17,21 L14,15 L12,14 L11,17 L9,16 L8,9 L6,9 L9,19 L7,19 L2,9 L0,8 L-1,6 L-4,5 L-2,1 Z "
     transform="translate(163,0)"
     style="fill: #57443D;"
     id="path4427" />
  <path
     d="M0,0 L2,1 L-1,10 L0,13 L7,12 L10,11 L11,9 L11,15 L9,20 L5,23 L2,23 L4,19 L2,17 L-2,21 L-4,21 L-4,18 L-6,18 L-8,15 L-8,5 L-3,2 Z "
     transform="translate(75,74)"
     style="fill: #046793;"
     id="path4429" />
  <path
     d="M0,0 L3,2 L4,5 L10,8 L20,14 L17,16 L12,14 L5,14 L-2,11 L-5,9 L-6,12 L-11,11 L-15,7 L-15,4 L-9,3 L-5,5 L1,6 Z "
     transform="translate(134,117)"
     style="fill: #472D20;"
     id="path4431" />
  <path
     d="M0,0 L4,1 L6,7 L6,18 L0,30 L-2,31 L-3,25 L-7,29 L-5,23 L-2,16 Z "
     transform="translate(157,19)"
     style="fill: #AC8768;"
     id="path4433" />
  <path
     d="M0,0 L6,0 L10,3 L10,6 L2,4 L8,7 L7,9 L5,9 L4,13 L3,15 L1,15 L1,10 L-4,11 L-6,17 L-9,22 L-11,22 L-13,31 L-14,31 L-13,22 L-9,12 L-1,1 Z "
     transform="translate(32,0)"
     style="fill: #5B4742;"
     id="path4435" />
  <path
     d="M0,0 L3,0 L5,8 L5,23 L4,25 L2,25 L0,32 L-1,33 L-1,43 L0,46 L2,46 L2,49 L4,49 L6,45 L10,43 L9,45 L11,47 L8,51 L14,48 L12,57 L1,51 L-4,42 L-4,33 L2,21 L2,8 L0,3 Z "
     transform="translate(69,46)"
     style="fill: #0D4F6B;"
     id="path4437" />
  <path
     d="M0,0 L14,2 L17,4 L16,9 L11,11 L1,11 L-9,6 L-10,3 L3,4 L3,2 L0,1 Z "
     transform="translate(161,110)"
     style="fill: #8F6A55;"
     id="path4439" />
  <path
     d="M0,0 L4,1 L2,3 L12,4 L11,7 L0,11 L-10,11 L-14,9 L-14,4 L-12,2 Z "
     transform="translate(38,110)"
     style="fill: #8E6854;"
     id="path4441" />
  <path
     d="M0,0 L3,3 L4,10 L6,6 L6,21 L4,20 L3,28 L0,28 L-2,23 L-3,17 L-3,6 Z "
     transform="translate(62,14)"
     style="fill: #BA9873;"
     id="path4443" />
  <path
     d="M0,0 L4,0 L5,2 L5,12 L1,20 L-5,27 L-8,27 L-5,18 L1,7 L1,4 L-2,12 L-10,22 L-10,19 L-4,10 Z "
     transform="translate(178,32)"
     style="fill: #B09070;"
     id="path4445" />
  <path
     d="M0,0 L4,1 L6,5 L11,6 L11,13 L13,14 L8,16 L2,17 L2,12 L1,11 L-13,10 L-13,9 L-5,8 L-15,7 L-12,5 L2,6 Z "
     transform="translate(31,72)"
     style="fill: #7C5543;"
     id="path4447" />
  <path
     d="M0,0 L1,0 L1,11 L3,11 L3,13 L6,12 L8,15 L8,19 L6,19 L6,21 L12,21 L12,23 L10,23 L10,28 L8,30 L7,34 L4,35 L2,22 L-1,17 L-1,2 Z "
     transform="translate(133,51)"
     style="fill: #3F2B1E;"
     id="path4449" />
  <path
     d="M0,0 L4,2 L8,12 L15,21 L15,24 L7,15 L3,7 L2,2 L0,2 L2,11 L6,16 L10,23 L13,27 L13,29 L8,28 L0,17 L-2,12 L-2,2 Z "
     transform="translate(21,32)"
     style="fill: #B29479;"
     id="path4451" />
  <path
     d="M0,0 L4,0 L4,4 L1,4 L1,6 L-1,7 L-18,7 L-23,6 L-23,1 Z "
     transform="translate(111,199)"
     style="fill: #7D6765;"
     id="path4453" />
  <path
     d="M0,0 L20,1 L21,7 L18,9 L3,9 L-3,6 L-3,4 L8,3 L0,1 Z "
     transform="translate(161,101)"
     style="fill: #A17B63;"
     id="path4455" />
  <path
     d="M0,0 L3,3 L4,6 L4,21 L1,30 L0,27 L-2,27 L-2,2 L0,2 Z "
     transform="translate(139,14)"
     style="fill: #AC8765;"
     id="path4457" />
  <path
     d="M0,0 L3,1 L4,4 L4,15 L7,15 L7,22 L2,22 L2,19 L1,18 L-4,19 L-7,19 L-7,16 L-16,16 L-17,15 L-20,14 L-25,9 L-29,5 L-28,3 L-19,11 L-9,13 L-3,15 L-3,17 L2,14 L2,6 Z "
     transform="translate(85,146)"
     style="fill: #1A3E4B;"
     id="path4459" />
  <path
     d="M0,0 L5,0 L2,2 L-4,6 L-11,12 L-7,13 L-15,20 L-21,24 L-24,23 L-28,24 L-35,28 L-38,27 L-19,16 L-9,7 Z "
     transform="translate(170,156)"
     style="fill: #5B4339;"
     id="path4461" />
  <path
     d="M0,0 L3,0 L3,3 L5,4 L2,5 L5,6 L6,9 L5,26 L4,31 L1,31 L0,29 L0,20 L2,19 L0,13 Z "
     transform="translate(96,164)"
     style="fill: #593E30;"
     id="path4463" />
  <path
     d="M0,0 L9,6 L17,13 L22,14 L22,16 L25,17 L28,19 L30,21 L37,25 L36,27 L20,19 L11,13 L4,6 L-1,1 Z "
     transform="translate(36,157)"
     style="fill: #3C261A;"
     id="path4465" />
  <path
     d="M0,0 L6,1 L9,2 L14,9 L14,11 L26,11 L29,11 L27,15 L12,15 L6,6 L-1,2 Z "
     transform="translate(81,33)"
     style="fill: #5F4738;"
     id="path4467" />
  <path
     d="M0,0 L1,0 L0,7 L-8,23 L-9,25 L-7,26 L-16,32 L-19,31 L-16,30 L-16,26 L-20,27 L-14,20 L-9,17 L-2,6 Z "
     transform="translate(179,34)"
     style="fill: #966A4E;"
     id="path4469" />
  <path
     d="M0,0 L2,1 L-8,8 L-20,15 L-14,15 L-14,13 L-9,12 L-5,11 L1,7 L3,8 L-5,15 L-10,18 L-21,19 L-22,14 L-13,8 Z "
     transform="translate(63,120)"
     style="fill: #6E5041;"
     id="path4471" />
  <path
     d="M0,0 L14,0 L14,2 L16,2 L16,4 L20,5 L13,7 L5,7 L-3,4 L-4,1 Z "
     transform="translate(17,94)"
     style="fill: #A47759;"
     id="path4473" />
  <path
     d="M0,0 L2,0 L2,8 L0,14 L-6,22 L-11,26 L-16,27 L-11,21 L-8,16 L-5,15 L-4,10 Z "
     transform="translate(193,41)"
     style="fill: #A9896C;"
     id="path4475" />
  <path
     d="M0,0 L4,2 L5,5 L10,2 L13,4 L7,11 L0,15 L-5,15 L-7,13 L-6,8 L3,8 L2,3 Z "
     transform="translate(116,87)"
     style="fill: #0F6585;"
     id="path4477" />
  <path
     d="M0,0 L6,0 L17,9 L17,14 L5,8 L2,8 L0,9 L-1,7 L-1,1 Z "
     transform="translate(26,158)"
     style="fill: #2B1910;"
     id="path4479" />
  <path
     d="M0,0 L7,0 L7,2 L2,4 L2,2 L-1,3 L-2,5 L-7,6 L-29,7 L-29,3 L-9,2 Z "
     transform="translate(45,99)"
     style="fill: #7C5D53;"
     id="path4481" />
  <path
     d="M0,0 L5,2 L13,18 L14,24 L10,22 L2,11 L0,4 Z "
     transform="translate(27,31)"
     style="fill: #B69171;"
     id="path4483" />
  <path
     d="M0,0 L4,1 L4,6 L-2,13 L-6,13 L-6,16 L-10,17 L-9,15 L-7,15 L-7,12 L-2,9 L-1,5 L-20,8 L-25,9 L-26,7 L-22,7 L-22,3 L-13,4 L-9,3 L-2,3 Z "
     transform="translate(148,139)"
     style="fill: #104E62;"
     id="path4485" />
  <path
     d="M0,0 L4,2 L6,4 L12,6 L13,11 L17,12 L31,21 L29,22 L17,15 L10,11 L8,8 L8,12 L3,12 L-1,8 L-1,6 L4,5 Z "
     transform="translate(127,111)"
     style="fill: #745240;"
     id="path4487" />
  <path
     d="M0,0 L1,4 L-2,10 L1,9 L2,16 L-1,19 L-3,19 L-5,17 L-11,18 L-9,12 L-10,8 L-6,3 L-5,10 Z "
     transform="translate(161,39)"
     style="fill: #885A44;"
     id="path4489" />
  <path
     d="M0,0 L5,0 L5,3 L7,3 L6,8 L1,11 L-4,11 L-4,8 L-7,7 L-7,3 Z "
     transform="translate(60,99)"
     style="fill: #7D5640;"
     id="path4491" />
  <path
     d="M0,0 L1,0 L2,10 L6,17 L6,29 L4,35 L2,35 L0,39 L-6,44 L-12,47 L-15,46 L-3,38 L2,32 L3,29 L3,18 L0,12 Z "
     transform="translate(130,56)"
     style="fill: #8C8479;"
     id="path4493" />
  <path
     d="M0,0 L2,0 L5,4 L5,7 L8,8 L26,8 L28,4 L33,0 L35,1 L31,6 L28,11 L26,12 L8,12 L5,11 L2,4 Z "
     transform="translate(84,41)"
     style="fill: #2C4146;"
     id="path4495" />
  <path
     d="M0,0 L6,0 L8,8 L4,8 L-2,7 L-2,9 L-7,11 L-12,11 L-7,5 Z "
     transform="translate(170,158)"
     style="fill: #2A160D;"
     id="path4497" />
  <path
     d="M0,0 L2,0 L2,6 L7,8 L6,2 L9,5 L10,12 L6,11 L7,16 L3,12 L3,10 L-3,11 L-6,9 L-6,5 L-4,5 L-3,2 L-2,5 L0,6 Z "
     transform="translate(96,150)"
     style="fill: #452F25;"
     id="path4499" />
  <path
     d="M0,0 L4,1 L7,5 L7,7 L10,8 L14,12 L15,16 L9,15 L2,10 L0,7 Z "
     transform="translate(12,53)"
     style="fill: #BF9E77;"
     id="path4501" />
  <path
     d="M0,0 L3,0 L3,2 L13,3 L34,4 L37,5 L37,10 L33,13 L31,12 L31,6 L8,6 L0,1 Z "
     transform="translate(150,96)"
     style="fill: #715444;"
     id="path4503" />
  <path
     d="M0,0 L1,0 L0,9 L-5,18 L-5,27 L-1,34 L-1,36 L4,38 L9,41 L9,43 L4,41 L-2,37 L-5,34 L-8,28 L-8,19 L-5,12 L-1,3 Z "
     transform="translate(71,61)"
     style="fill: #817E7F;"
     id="path4505" />
  <path
     d="M0,0 L2,0 L2,14 L-2,24 L-4,25 L-5,18 L-2,3 Z "
     transform="translate(151,21)"
     style="fill: #C09D76;"
     id="path4507" />
  <path
     d="M0,0 L9,1 L16,3 L18,8 L24,12 L23,14 L14,11 L10,10 L10,8 L13,8 L13,6 L5,5 Z "
     transform="translate(95,78)"
     style="fill: #A0999A;"
     id="path4509" />
  <path
     d="M0,0 L3,0 L3,2 L6,1 L11,5 L15,6 L15,4 L27,5 L27,6 L17,6 L16,7 L10,7 L7,5 L7,9 L2,9 L-1,7 L-6,8 L-4,7 L-4,2 L-2,3 L-2,5 L1,5 Z "
     transform="translate(119,137)"
     style="fill: #272C2B;"
     id="path4511" />
  <path
     d="M0,0 L3,2 L5,16 L4,24 L1,21 L-1,15 L-1,1 Z "
     transform="translate(50,19)"
     style="fill: #C6A680;"
     id="path4513" />
  <path
     d="M0,0 L2,0 L6,10 L13,19 L15,22 L15,29 L11,27 L13,27 L6,17 L2,10 L0,5 Z "
     transform="translate(21,34)"
     style="fill: #8B654A;"
     id="path4515" />
  <path
     d="M0,0 L5,5 L6,8 L10,4 L12,4 L12,6 L14,6 L12,11 L8,15 L4,13 L0,8 L0,6 L2,6 Z "
     transform="translate(94,16)"
     style="fill: #756053;"
     id="path4517" />
  <path
     d="M0,0 L5,3 L6,8 L0,19 L-4,20 L-6,24 L-7,21 L0,9 Z "
     transform="translate(195,132)"
     style="fill: #342117;"
     id="path4519" />
  <path
     d="M0,0 L8,0 L15,1 L12,3 L19,6 L19,9 L13,11 L10,9 L10,7 L8,7 L8,5 L-5,5 L-5,4 L6,3 L0,1 Z "
     transform="translate(23,89)"
     style="fill: #7E5846;"
     id="path4521" />
  <path
     d="M0,0 L3,0 L5,8 L5,23 L4,25 L2,25 L0,32 L-1,33 L-2,42 L-4,42 L-4,33 L2,21 L2,8 L0,3 Z "
     transform="translate(69,46)"
     style="fill: #154252;"
     id="path4523" />
  <path
     d="M0,0 L6,0 L7,3 L3,5 L3,8 L7,7 L8,4 L10,4 L11,9 L7,11 L-3,10 L-5,8 L-3,7 L-5,5 L1,3 Z "
     transform="translate(43,104)"
     style="fill: #6B4737;"
     id="path4525" />
  <path
     d="M0,0 L1,0 L3,7 L3,24 L-1,25 L-2,24 L-1,6 Z "
     transform="translate(104,172)"
     style="fill: #55392B;"
     id="path4527" />
  <path
     d="M0,0 L7,0 L8,3 L1,6 L-13,6 L-12,2 Z "
     transform="translate(184,83)"
     style="fill: #BD9974;"
     id="path4529" />
  <path
     d="M0,0 L3,0 L3,6 L-3,17 L-7,20 L-8,16 L-3,6 Z "
     transform="translate(171,33)"
     style="fill: #B68F6A;"
     id="path4531" />
  <path
     d="M0,0 L7,5 L13,4 L21,8 L26,10 L26,11 L14,11 L6,8 L1,4 Z "
     transform="translate(4,66)"
     style="fill: #AD8B6C;"
     id="path4533" />
  <path
     d="M0,0 L2,0 L5,5 L4,7 L3,7 L3,14 L-4,26 L-7,29 L-8,32 L-15,37 L-13,33 L-3,20 L1,13 L0,6 L-2,1 Z "
     transform="translate(193,127)"
     style="fill: #5A443A;"
     id="path4535" />
</svg>
