<?xml version="1.0" encoding="UTF-8" standalone="no"?>
<svg
   id="svg"
   version="1.1"
   viewBox="0 0 198 216"
   style="display: block;"
   sodipodi:docname="edited_gryffindor.svg"
   inkscape:version="1.1.2 (08b2f3d93c, 2022-04-05)"
   xmlns:inkscape="http://www.inkscape.org/namespaces/inkscape"
   xmlns:sodipodi="http://sodipodi.sourceforge.net/DTD/sodipodi-0.dtd"
   xmlns="http://www.w3.org/2000/svg"
   xmlns:svg="http://www.w3.org/2000/svg">
  <defs
     id="defs1740" />
  <sodipodi:namedview
     id="namedview1738"
     pagecolor="#ffffff"
     bordercolor="#666666"
     borderopacity="1.0"
     inkscape:pageshadow="2"
     inkscape:pageopacity="0.0"
     inkscape:pagecheckerboard="0"
     showgrid="false"
     inkscape:zoom="2.2916667"
     inkscape:cx="185.67273"
     inkscape:cy="108"
     inkscape:window-width="1286"
     inkscape:window-height="704"
     inkscape:window-x="74"
     inkscape:window-y="27"
     inkscape:window-maximized="1"
     inkscape:current-layer="svg" />
  <path
     d="M 50.586129,53 H 175 V 154.58328 H 50.586129 Z"
     style="fill:#7c2912;stroke-width:0.543608"
     id="path1561" />
  <path
     d="M 42.326132,18 H 157 v 93.58328 H 42.326132 Z"
     style="display:block;fill:#7c2912;stroke-width:0.500924"
     id="path1561-7" />
  <path
     d="m 60,111 h 81 v 80 H 60 Z"
     style="display:block;fill:#7c2912;stroke-width:0.389249"
     id="path1561-7-0" />
  <path
     d="M0,0 L7,0 L17,4 L22,7 L42,7 L49,10 L58,15 L63,11 L72,7 L93,7 L103,1 L117,1 L121,10 L128,21 L132,27 L140,27 L139,33 L138,34 L133,34 L130,28 L124,29 L119,33 L118,39 L121,42 L128,44 L131,47 L136,61 L146,94 L146,111 L150,112 L155,118 L155,130 L149,142 L145,147 L143,147 L142,150 L130,159 L123,160 L115,167 L113,170 L112,175 L118,174 L119,178 L112,187 L99,197 L87,204 L77,208 L70,211 L60,215 L52,214 L32,206 L28,203 L20,200 L6,189 L-3,179 L-3,175 L3,175 L1,168 L-6,161 L-11,158 L-15,159 L-24,152 L-31,146 L-37,137 L-37,135 L-39,135 L-40,132 L-40,119 L-36,113 L-33,110 L-31,94 L-25,75 L-20,57 L-16,47 L-12,43 L-3,41 L-3,35 L-8,30 L-11,28 L-15,28 L-18,35 L-23,34 L-25,30 L-25,27 L-17,27 L-11,18 L-4,8 L-2,2 Z M4,13 L0,19 L2,23 L7,28 L9,32 L9,43 L5,48 L-5,50 L-9,55 L-15,73 L-21,96 L-21,110 L-17,119 L-16,124 L-20,122 L-25,122 L-27,124 L-27,133 L-22,142 L-17,146 L-12,147 L-9,146 L3,155 L15,166 L17,167 L18,170 L20,171 L18,175 L18,182 L21,187 L26,191 L42,199 L53,203 L61,203 L77,197 L87,193 L96,185 L97,182 L97,175 L95,171 L102,164 L110,157 L123,147 L132,146 L136,143 L136,141 L138,141 L142,134 L142,124 L140,122 L133,123 L131,124 L136,109 L136,98 L132,82 L125,57 L120,50 L111,49 L107,44 L106,42 L106,32 L110,26 L115,21 L113,16 L111,13 L105,14 L93,20 L74,20 L66,24 L59,31 L55,30 L46,22 L42,20 L21,20 L7,13 Z "
     transform="translate(42,1)"
     style="fill: #AB783D;"
     id="path1565" />
  <path
     d="M0,0 L9,1 L10,3 L9,6 L7,7 L5,13 L-6,18 L-9,23 L-11,23 L-13,29 L-19,37 L-24,47 L-33,57 L-35,66 L-42,71 L-45,74 L-50,75 L-51,78 L-49,78 L-50,81 L-58,82 L-55,79 L-53,79 L-53,77 L-59,79 L-67,78 L-65,76 L-68,74 L-64,73 L-69,68 L-78,64 L-74,63 L-73,62 L-78,61 L-87,57 L-90,54 L-86,55 L-86,53 L-82,54 L-82,52 L-89,50 L-96,50 L-92,53 L-89,58 L-87,60 L-87,66 L-91,66 L-99,63 L-104,60 L-104,57 L-106,57 L-106,54 L-111,53 L-114,47 L-115,43 L-117,42 L-118,47 L-123,45 L-131,39 L-140,38 L-138,34 L-132,29 L-125,27 L-126,32 L-126,35 L-116,28 L-114,28 L-114,37 L-112,37 L-111,31 L-109,27 L-107,27 L-107,37 L-105,37 L-105,31 L-103,34 L-101,39 L-99,25 L-95,19 L-94,21 L-96,28 L-96,42 L-94,42 L-93,33 L-86,25 L-80,18 L-76,20 L-71,25 L-71,20 L-67,22 L-64,26 L-63,37 L-58,41 L-58,43 L-56,43 L-57,48 L-55,48 L-52,51 L-51,54 L-44,48 L-35,41 L-29,36 L-19,21 L-16,15 L-10,11 L-5,7 Z "
     transform="translate(165,107)"
     style="fill: #814317;"
     id="path1567" />
  <path
     d="M0,0 L2,2 L6,18 L6,29 L3,39 L1,44 L5,42 L10,42 L12,44 L12,54 L8,61 L6,61 L4,65 L2,66 L-7,67 L-21,78 L-35,91 L-33,95 L-33,102 L-36,107 L-43,113 L-65,122 L-69,123 L-77,123 L-97,115 L-107,109 L-111,105 L-112,102 L-112,95 L-110,91 L-112,90 L-113,87 L-124,78 L-129,72 L-125,72 L-124,68 L-121,69 L-118,77 L-117,79 L-113,80 L-113,83 L-111,83 L-111,86 L-106,88 L-97,92 L-95,92 L-95,86 L-99,82 L-101,78 L-104,75 L-96,75 L-89,78 L-89,80 L-93,79 L-93,81 L-96,81 L-91,84 L-80,88 L-81,90 L-83,90 L-75,94 L-71,97 L-71,99 L-73,100 L-71,102 L-72,103 L-64,104 L-60,103 L-60,105 L-63,107 L-57,106 L-56,104 L-58,104 L-57,100 L-52,99 L-50,99 L-48,95 L-43,92 L-41,83 L-34,76 L-28,66 L-23,57 L-18,49 L-16,49 L-15,45 L-12,42 L-2,38 L-1,32 L2,32 L2,15 L0,4 Z "
     transform="translate(172,81)"
     style="fill: #54290B;"
     id="path1569" />
  <path
     d="M0,0 L1,2 L-5,12 L-7,12 L-9,16 L-12,18 L-13,15 L-20,27 L-23,37 L-22,43 L-24,46 L-25,51 L-27,51 L-27,58 L-22,57 L-20,66 L-16,66 L-16,49 L-14,49 L-12,64 L-10,59 L-6,58 L-4,49 L4,34 L6,34 L7,30 L9,30 L11,26 L12,24 L14,24 L15,27 L19,23 L21,23 L22,25 L29,24 L26,27 L18,31 L18,32 L26,31 L23,33 L17,36 L13,39 L11,39 L9,43 L5,49 L3,55 L8,50 L16,46 L19,48 L7,60 L3,66 L2,72 L5,69 L7,62 L9,66 L12,59 L14,58 L14,65 L20,58 L24,59 L23,64 L26,63 L36,63 L38,65 L35,65 L34,74 L37,79 L33,78 L31,73 L28,73 L26,77 L24,77 L22,84 L24,87 L31,81 L33,79 L32,83 L25,91 L22,95 L20,104 L18,104 L17,99 L17,90 L19,82 L16,87 L14,102 L11,99 L10,96 L9,99 L7,99 L7,89 L5,89 L2,99 L0,99 L0,90 L-12,98 L-14,97 L-11,89 L-20,93 L-26,100 L-17,100 L-9,106 L-8,108 L-12,106 L-18,102 L-24,103 L-30,99 L-35,92 L-36,89 L-36,80 L-34,78 L-27,79 L-25,80 L-28,71 L-30,66 L-30,52 L-26,36 L-19,13 L-15,7 L-12,5 L-4,4 Z "
     transform="translate(51,45)"
     style="fill: #481909;"
     id="path1571" />
  <path
     d="M0,0 L9,0 L18,2 L26,1 L37,10 L39,13 L40,18 L41,15 L43,15 L43,24 L48,32 L50,34 L52,41 L57,47 L56,51 L49,51 L51,55 L51,60 L47,62 L45,58 L43,58 L43,54 L25,54 L25,52 L27,52 L26,49 L29,49 L29,47 L32,46 L26,43 L23,40 L19,38 L18,33 L20,33 L17,30 L17,28 L11,23 L10,17 L13,14 L19,14 L22,19 L26,18 L24,15 L17,13 L9,13 L9,15 L4,16 L3,18 L0,19 L0,27 L4,28 L4,37 L-5,41 L-13,41 L-8,37 L-6,36 L-15,36 L-21,39 L-23,38 L-17,33 L-10,30 L-18,31 L-17,28 L-24,33 L-24,29 L-26,29 L-28,33 L-31,36 L-33,39 L-32,34 L-28,29 L-22,21 L-19,18 L-22,19 L-20,12 L-11,6 L-4,3 L7,3 L0,1 Z "
     transform="translate(89,40)"
     style="fill: #893C16;"
     id="path1573" />
  <path
     d="M0,0 L4,4 L9,19 L15,40 L17,46 L17,63 L21,64 L26,70 L26,82 L20,94 L16,99 L14,99 L13,102 L1,111 L-6,112 L-14,119 L-18,126 L-19,122 L-20,119 L-19,116 L-21,116 L-22,119 L-27,118 L-26,121 L-28,122 L-30,123 L-29,125 L-28,134 L-27,137 L-30,142 L-35,143 L-44,149 L-54,153 L-58,155 L-52,154 L-56,158 L-61,160 L-69,161 L-68,159 L-79,157 L-95,151 L-106,146 L-111,142 L-113,137 L-114,136 L-114,125 L-111,122 L-108,123 L-110,127 L-110,134 L-107,139 L-98,145 L-84,151 L-76,154 L-68,154 L-52,148 L-42,144 L-34,137 L-33,134 L-33,127 L-35,123 L-27,115 L-19,108 L-6,98 L3,97 L7,93 L9,93 L11,88 L12,86 L12,76 L11,75 L2,76 L3,71 L6,61 L6,50 L2,34 L-5,9 L-8,3 L-5,4 L-1,13 L1,14 L0,8 L2,9 Z "
     transform="translate(171,49)"
     style="fill: #AF7B3B;"
     id="path1575" />
  <path
     d="M0,0 L1,0 L2,9 L4,6 L4,16 L2,16 L0,20 L-10,27 L-14,31 L-16,38 L-20,43 L-18,43 L-20,49 L-28,65 L-32,75 L-33,78 L-37,79 L-38,84 L-40,85 L-41,69 L-43,69 L-42,86 L-44,88 L-44,86 L-47,86 L-49,82 L-49,77 L-53,78 L-54,87 L-55,87 L-55,74 L-54,71 L-52,71 L-52,66 L-50,61 L-51,57 L-47,45 L-40,34 L-38,36 L-32,31 L-27,22 L-26,10 L-25,10 L-25,19 L-23,18 L-21,13 L-20,13 L-19,19 L-18,8 L-14,2 L-13,2 L-12,7 L-8,1 L-6,1 L-6,7 L-4,7 Z "
     transform="translate(78,25)"
     style="fill: #8D1416;"
     id="path1577" />
  <path
     d="M0,0 L5,1 L17,7 L38,7 L47,13 L52,18 L56,17 L65,9 L70,7 L89,7 L103,0 L108,1 L111,6 L109,10 L106,11 L106,6 L101,10 L101,6 L98,7 L94,15 L92,14 L92,12 L89,12 L88,21 L85,30 L84,30 L84,23 L85,16 L83,20 L81,29 L79,27 L78,18 L77,14 L74,14 L74,23 L67,19 L60,19 L58,21 L66,22 L74,29 L79,30 L83,36 L79,34 L75,33 L69,28 L58,29 L52,27 L48,27 L51,30 L39,30 L25,37 L22,44 L24,44 L23,47 L18,52 L14,58 L13,56 L14,54 L11,55 L13,51 L16,48 L18,41 L27,33 L33,29 L34,27 L36,27 L35,20 L33,23 L32,12 L28,19 L25,19 L26,12 L22,16 L19,19 L18,14 L15,19 L14,30 L12,31 L11,25 L9,30 L7,30 L6,21 L0,11 L-4,8 L-2,3 Z "
     transform="translate(46,14)"
     style="fill: #550D09;"
     id="path1579" />
  <path
     d="M0,0 L14,0 L18,9 L25,20 L29,26 L37,26 L36,32 L35,33 L30,33 L27,27 L21,28 L16,32 L15,38 L18,41 L25,43 L28,46 L27,49 L30,58 L29,61 L27,56 L27,61 L24,60 L20,51 L12,49 L7,48 L3,43 L2,41 L2,31 L6,25 L11,20 L9,15 L8,13 L2,14 L-10,20 L-25,19 L-25,13 L-32,13 L-37,15 L-38,16 L-38,23 L-43,27 L-46,30 L-52,22 L-50,22 L-50,16 L-54,14 L-50,13 L-47,17 L-43,12 L-31,6 L-10,6 Z "
     transform="translate(145,2)"
     style="fill: #935219;"
     id="path1581" />
  <path
     d="M0,0 L2,1 L2,7 L-2,12 L-3,14 L-3,24 L-1,29 L-3,30 L-3,28 L-5,28 L-5,33 L-2,41 L-2,56 L-3,68 L-5,70 L-9,64 L-12,61 L-14,54 L-18,49 L-20,45 L-19,36 L-21,36 L-21,41 L-23,39 L-25,33 L-28,29 L-27,27 L-24,29 L-26,25 L-31,25 L-39,18 L-49,17 L-45,13 L-38,13 L-32,17 L-31,9 L-28,9 L-26,13 L-25,22 L-22,11 L-19,11 L-20,21 L-17,13 L-16,7 L-13,7 L-12,9 L-7,1 L-4,1 L-3,3 Z "
     transform="translate(151,19)"
     style="fill: #701210;"
     id="path1583" />
  <path
     d="M0,0 L9,0 L7,6 L10,7 L9,20 L12,28 L15,25 L18,27 L19,25 L19,28 L23,29 L25,19 L27,18 L29,22 L29,28 L18,44 L10,51 L-1,59 L-3,59 L-5,52 L-11,45 L-16,35 L-17,25 L-15,26 L-10,41 L-7,46 L-10,37 L-12,27 L-17,20 L-18,24 L-23,17 L-23,15 L-25,15 L-24,24 L-26,24 L-27,9 L-23,11 L-13,21 L-13,23 L-11,23 L-14,18 L-16,11 L-17,7 L-15,4 L-11,12 L-11,20 L-9,20 L-7,23 L-5,19 L-5,34 L-3,40 L-2,35 L0,37 L2,31 L4,35 L4,25 L3,23 L0,22 L0,20 L3,19 L5,14 L-4,8 L-3,3 Z "
     transform="translate(118,100)"
     style="fill: #4C1607;"
     id="path1585" />
  <path
     d="M0,0 L4,2 L9,7 L9,2 L13,4 L16,8 L17,19 L22,23 L22,25 L24,25 L23,30 L25,30 L28,33 L26,40 L24,40 L24,43 L19,44 L19,40 L13,39 L13,37 L15,37 L15,35 L7,35 L3,30 L1,27 L-3,26 L-3,24 L-6,24 L-6,22 L-12,21 L-11,14 L-5,6 Z "
     transform="translate(85,125)"
     style="fill: #A65D22;"
     id="path1587" />
  <path
     d="M0,0 L6,0 L9,5 L13,5 L24,8 L27,12 L28,17 L27,18 L16,18 L17,21 L24,24 L34,25 L40,30 L43,35 L42,37 L36,37 L38,41 L38,46 L34,48 L32,44 L30,44 L30,40 L12,40 L12,38 L14,38 L13,35 L16,35 L16,33 L19,32 L13,29 L10,26 L6,24 L5,19 L7,19 L4,16 L4,14 L-2,9 L-3,3 Z "
     transform="translate(102,54)"
     style="fill: #B26424;"
     id="path1589" />
  <path
     d="M0,0 L1,0 L2,9 L4,6 L4,16 L2,16 L0,20 L-10,27 L-14,31 L-16,38 L-20,43 L-18,43 L-20,49 L-28,65 L-30,65 L-30,43 L-29,32 L-23,20 L-21,13 L-20,13 L-19,19 L-18,8 L-14,2 L-13,2 L-12,7 L-8,1 L-6,1 L-6,7 L-4,7 Z "
     transform="translate(78,25)"
     style="fill: #B71C21;"
     id="path1591" />
  <path
     d="M0,0 L2,2 L6,18 L6,29 L3,39 L1,44 L5,42 L10,42 L12,44 L12,54 L8,61 L6,61 L4,65 L2,66 L-7,67 L-21,78 L-30,86 L-32,85 L-26,76 L-22,68 L-15,58 L-11,48 L-6,44 L-3,44 L-1,39 L0,34 L-1,32 L2,32 L2,15 L0,4 Z "
     transform="translate(172,81)"
     style="fill: #3E0D07;"
     id="path1593" />
  <path
     d="M0,0 L2,0 L3,2 L3,13 L0,17 L1,18 L5,12 L6,3 L8,4 L9,7 L9,28 L8,46 L5,52 L-1,56 L-2,61 L-6,62 L-8,66 L-10,60 L-9,48 L-7,48 L-6,27 L-4,11 L-2,12 L-2,14 L0,14 Z "
     transform="translate(155,60)"
     style="fill: #A6181B;"
     id="path1595" />
  <path
     d="M0,0 L9,1 L10,3 L9,6 L7,7 L5,13 L-6,18 L-9,23 L-11,23 L-13,29 L-19,37 L-20,40 L-24,42 L-31,52 L-36,54 L-38,54 L-38,52 L-43,56 L-46,60 L-51,61 L-51,54 L-44,48 L-35,41 L-29,36 L-19,21 L-16,15 L-10,11 L-5,7 Z M-37,54 Z "
     transform="translate(165,107)"
     style="fill: #9C5A21;"
     id="path1597" />
  <path
     d="M0,0 L2,1 L3,6 L6,4 L6,6 L11,2 L13,3 L5,11 L2,17 L1,13 L0,10 L1,7 L-1,7 L-2,10 L-7,9 L-6,12 L-8,13 L-10,14 L-9,16 L-8,25 L-7,28 L-10,33 L-15,34 L-24,40 L-34,44 L-38,46 L-32,45 L-36,49 L-41,51 L-49,52 L-48,50 L-59,48 L-75,42 L-86,37 L-91,33 L-93,28 L-94,27 L-94,16 L-91,13 L-88,14 L-90,18 L-90,25 L-87,30 L-78,36 L-64,42 L-56,45 L-48,45 L-32,39 L-22,35 L-14,28 L-13,25 L-13,18 L-15,14 L-7,6 Z "
     transform="translate(151,158)"
     style="fill: #BB8C4E;"
     id="path1599" />
  <path
     d="M0,0 L2,0 L4,7 L9,14 L11,14 L18,25 L26,25 L25,31 L24,32 L19,32 L16,26 L10,27 L5,31 L4,37 L7,40 L14,42 L17,45 L16,48 L19,57 L18,60 L16,55 L16,60 L13,59 L9,50 L0,48 L-7,40 L-6,37 L-2,43 L-3,40 L0,40 L-1,34 L3,28 L7,24 L4,19 L6,19 L4,15 L1,15 L-2,11 L-8,10 L-6,7 L-15,7 L-14,4 L-10,3 L-6,1 Z "
     transform="translate(156,3)"
     style="fill: #8D5B2A;"
     id="path1601" />
  <path
     d="M0,0 L12,0 L18,3 L14,4 L14,6 L4,7 L9,8 L6,9 L7,11 L7,19 L11,20 L11,29 L2,33 L-6,33 L-1,29 L1,28 L-8,28 L-14,31 L-16,30 L-10,25 L-3,22 L-11,23 L-10,20 L-17,25 L-16,21 L-6,9 L-4,9 L-4,7 L-8,5 Z "
     transform="translate(82,48)"
     style="fill: #AA5423;"
     id="path1603" />
  <path
     d="M0,0 L3,1 L4,8 L5,12 L11,11 L12,15 L7,20 L1,24 L-9,32 L-19,38 L-40,47 L-47,49 L-55,48 L-56,46 L-50,47 L-50,45 L-59,43 L-66,40 L-62,39 L-54,42 L-44,43 L-45,45 L-38,43 L-31,40 L-37,41 L-36,39 L-18,31 L-11,26 L-8,26 L-6,21 L-7,21 L-8,8 L-6,5 L-5,3 L0,4 Z "
     transform="translate(149,164)"
     style="fill: #8E571F;"
     id="path1605" />
  <path
     d="M0,0 L9,1 L14,4 L15,7 L11,6 L10,8 L7,3 L1,3 L-1,5 L0,11 L3,14 L7,16 L5,16 L5,18 L8,19 L8,21 L6,21 L7,43 L8,52 L15,66 L20,67 L17,68 L17,70 L21,71 L22,77 L22,85 L19,83 L18,89 L16,85 L14,89 L11,82 L11,71 L9,72 L8,68 L6,68 L7,63 L9,67 L8,59 L4,47 L4,31 L2,31 L1,20 L-3,18 L-5,13 L-7,12 L-8,9 L-13,7 L-9,4 L-9,3 L-3,3 L-3,1 Z "
     style="fill: #65290A;"
     id="path1607"
     transform="translate(101,52)" />
  <path
     d="M0,0 L8,6 L14,9 L15,11 L11,11 L11,13 L9,14 L9,16 L8,17 L25,17 L26,20 L25,22 L29,21 L30,27 L28,28 L28,30 L23,30 L23,28 L25,28 L25,26 L21,24 L13,24 L8,28 L9,33 L17,38 L15,43 L9,43 L4,35 L0,24 Z "
     transform="translate(107,76)"
     style="fill: #874319;"
     id="path1609" />
  <path
     d="M0,0 L3,3 L3,10 L6,11 L9,1 L10,1 L9,10 L3,19 L-4,26 L-6,27 L-6,30 L-12,34 L-22,35 L-25,38 L-29,38 L-31,39 L-32,31 L-19,21 L-10,20 L-6,16 L-4,16 L-2,11 L-1,9 Z "
     transform="translate(184,126)"
     style="fill: #905220;"
     id="path1611" />
  <path
     d="M0,0 L2,0 L4,7 L5,4 L7,4 L9,8 L13,10 L15,9 L25,10 L33,17 L38,18 L42,24 L38,22 L34,21 L28,16 L17,17 L11,15 L7,15 L10,18 L-2,18 L-16,25 L-19,32 L-17,32 L-18,35 L-23,40 L-27,46 L-28,44 L-27,42 L-30,43 L-28,39 L-25,36 L-23,29 L-14,21 L-8,17 L-7,15 L-5,15 L-6,4 L-4,2 L-3,5 Z "
     transform="translate(87,26)"
     style="fill: #8C1913;"
     id="path1613" />
  <path
     d="M0,0 L4,2 L9,7 L9,2 L13,4 L16,8 L17,19 L20,21 L21,31 L17,31 L15,27 L13,26 L13,22 L8,22 L-2,15 L-3,11 L-7,10 L-3,3 Z "
     transform="translate(85,125)"
     style="fill: #BC7327;"
     id="path1615" />
  <path
     d="M0,0 L1,2 L-4,7 L-14,15 L-26,22 L-36,26 L-43,29 L-53,33 L-61,32 L-81,24 L-88,19 L-86,18 L-76,22 L-93,13 L-94,9 L-89,12 L-79,16 L-72,19 L-72,21 L-67,22 L-56,26 L-56,28 L-61,28 L-53,29 L-39,24 L-23,17 L-11,9 Z "
     transform="translate(155,183)"
     style="fill: #9E662E;"
     id="path1617" />
  <path
     d="M0,0 L3,0 L5,4 L6,13 L9,2 L12,2 L11,9 L11,20 L13,26 L15,26 L17,29 L18,39 L19,40 L19,45 L15,43 L11,36 L12,27 L10,27 L10,32 L8,30 L6,24 L3,20 L4,18 L7,20 L5,16 L0,16 L-8,9 L-18,8 L-14,4 L-7,4 L-1,8 Z "
     transform="translate(120,28)"
     style="fill: #B62022;"
     id="path1619" />
  <path
     d="M0,0 L1,0 L3,12 L7,19 L7,17 L11,12 L16,21 L22,25 L28,24 L34,28 L36,32 L40,35 L39,39 L37,40 L37,43 L29,36 L26,36 L25,38 L22,37 L24,37 L24,35 L20,34 L9,25 L2,16 L0,11 Z "
     transform="translate(5,122)"
     style="fill: #8F541F;"
     id="path1621" />
  <path
     d="M0,0 L9,3 L13,8 L16,8 L17,15 L19,17 L12,25 L11,29 L11,33 L9,34 L9,37 L5,33 L11,41 L7,40 L3,35 L2,33 L2,23 L6,17 L11,12 L9,7 L8,5 L2,6 L-7,11 L-15,11 L-15,10 L-9,9 L-10,5 L-9,4 L-4,4 L-4,2 Z "
     transform="translate(145,10)"
     style="fill: #C59760;"
     id="path1623" />
  <path
     d="M0,0 L11,0 L19,4 L26,10 L29,19 L25,20 L9,13 L2,8 L0,4 Z "
     transform="translate(62,181)"
     style="fill: #6B3D16;"
     id="path1625" />
  <path
     d="M0,0 L4,4 L5,6 L9,7 L10,9 L12,7 L13,13 L8,19 L-3,20 L-8,27 L-10,30 L-11,27 L-13,27 L-14,33 L-15,33 L-15,23 L-12,16 L-9,13 L0,11 Z "
     transform="translate(39,31)"
     style="fill: #86511E;"
     id="path1627" />
  <path
     d="M0,0 L4,2 L13,3 L18,10 L20,17 L20,23 L18,21 L18,33 L16,36 L14,19 L13,16 L12,24 L7,31 L5,35 L5,29 L8,25 L8,12 L6,12 L6,26 L4,26 L3,12 L0,4 Z "
     transform="translate(149,48)"
     style="fill: #71090A;"
     id="path1629" />
  <path
     d="M0,0 L7,0 L14,3 L16,4 L16,10 L16,12 L21,17 L26,11 L28,11 L27,4 L30,1 L34,0 L41,0 L42,3 L41,5 L43,6 L32,10 L22,19 L18,18 L9,10 L5,8 L-3,6 L-1,4 Z "
     transform="translate(79,14)"
     style="fill: #C7924F;"
     id="path1631" />
  <path
     d="M0,0 L5,2 L19,15 L22,17 L22,19 L18,17 L12,17 L10,16 L11,20 L10,22 L9,27 L5,28 L11,36 L24,46 L27,49 L20,47 L9,38 L1,29 L1,25 L7,25 L5,18 L-2,11 L-7,8 L-8,5 L-3,7 L4,13 L3,10 L6,10 L6,6 L0,1 Z "
     transform="translate(38,151)"
     style="fill: #B78E54;"
     id="path1633" />
  <path
     d="M0,0 L7,0 L17,4 L22,7 L42,7 L42,8 L35,8 L35,10 L42,11 L42,12 L33,13 L31,19 L21,19 L21,16 L21,12 L16,10 L5,6 L-1,5 Z "
     transform="translate(42,1)"
     style="fill: #865A28;"
     id="path1635" />
  <path
     d="M0,0 L3,1 L0,4 L-2,9 L-14,20 L-17,23 L-17,16 L-21,24 L-23,20 L-25,27 L-29,30 L-28,23 L-21,14 L-12,5 L-5,1 Z "
     transform="translate(81,88)"
     style="fill: #653113;"
     id="path1637" />
  <path
     d="M0,0 L9,0 L10,6 L8,12 L6,12 L3,21 L-2,29 L-3,26 L2,17 L0,18 L-7,18 L-9,25 L-10,33 L-12,30 L-10,17 L-14,16 L-12,11 L-18,10 L-18,9 L-10,9 L-6,12 L-6,14 L-8,14 L-8,16 L-3,16 L-4,13 L1,10 L1,5 L-1,1 Z "
     transform="translate(138,90)"
     style="fill: #6D180B;"
     id="path1639" />
  <path
     d="M0,0 L4,0 L5,2 L16,2 L16,4 L13,5 L24,9 L29,10 L26,13 L17,16 L9,16 L3,13 L4,11 L0,2 Z "
     transform="translate(86,188)"
     style="fill: #220A04;"
     id="path1641" />
  <path
     d="M0,0 L3,4 L7,15 L7,30 L6,42 L4,44 L0,38 L-2,36 L-2,29 L-1,27 L0,16 L3,17 L4,20 L3,14 L0,8 Z "
     transform="translate(142,45)"
     style="fill: #B91B22;"
     id="path1643" />
  <path
     d="M0,0 L14,0 L18,9 L21,14 L20,16 L13,7 L13,1 L3,4 L-1,6 L-3,5 L-2,7 L5,7 L5,10 L0,9 L-4,10 L-4,12 L-9,13 L-10,17 L-16,17 L-15,12 L-14,11 L-19,9 L-19,8 L-10,6 Z "
     transform="translate(145,2)"
     style="fill: #A2763F;"
     id="path1645" />
  <path
     d="M0,0 L3,3 L5,12 L6,24 L6,35 L4,35 L1,27 L-3,23 L-3,12 Z "
     transform="translate(135,26)"
     style="fill: #BA1B22;"
     id="path1647" />
  <path
     d="M0,0 L2,0 L5,9 L5,26 L9,27 L14,33 L14,45 L8,57 L4,62 L2,62 L1,65 L-3,68 L-6,67 L4,58 L9,50 L11,44 L11,36 L7,30 L2,28 L2,12 L0,6 Z "
     transform="translate(183,86)"
     style="fill: #C5A778;"
     id="path1649" />
  <path
     d="M0,0 L2,0 L1,6 L-4,13 L-6,21 L-15,22 L-18,29 L-23,28 L-25,24 L-25,21 L-17,21 L-14,16 L-12,16 L-5,6 Z "
     transform="translate(42,7)"
     style="fill: #855E33;"
     id="path1651" />
  <path
     d="M0,0 L4,1 L6,4 L-1,12 L-2,16 L-2,20 L-4,21 L-4,24 L-9,18 L-10,18 L-10,12 L-4,3 Z "
     transform="translate(158,23)"
     style="fill: #B8843D;"
     id="path1653" />
  <path
     d="M0,0 L1,0 L2,9 L7,15 L8,21 L10,21 L9,5 L11,5 L13,16 L16,21 L16,29 L14,25 L13,22 L11,21 L11,32 L9,40 L8,40 L7,28 L6,27 L5,17 L4,14 L2,14 L-1,8 Z "
     transform="translate(131,40)"
     style="fill: #9C0F12;"
     id="path1655" />
  <path
     d="M0,0 L1,0 L2,16 L7,31 L7,38 L5,36 L2,29 L-6,13 L-6,4 L-4,6 L-3,10 L-1,1 Z "
     transform="translate(104,83)"
     style="fill: #88421E;"
     id="path1657" />
  <path
     d="M0,0 L1,2 L-4,7 L-14,15 L-26,22 L-36,26 L-43,29 L-48,31 L-58,31 L-61,29 L-53,29 L-39,24 L-23,17 L-11,9 Z "
     transform="translate(155,183)"
     style="fill: #C09C69;"
     id="path1659" />
  <path
     d="M0,0 L2,2 L2,7 L4,7 L5,3 L11,8 L10,12 L1,19 L-4,20 L-3,12 L-1,7 Z "
     transform="translate(120,137)"
     style="fill: #290804;"
     id="path1661" />
  <path
     d="M0,0 L12,0 L14,2 L15,10 L16,12 L15,18 L13,16 L12,7 L11,3 L8,3 L8,12 L1,8 L-6,7 L-6,4 Z "
     transform="translate(112,25)"
     style="fill: #7F0E0F;"
     id="path1663" />
  <path
     d="M0,0 L2,0 L4,7 L8,13 L7,15 L2,16 L-2,11 L-8,10 L-6,7 L-15,7 L-14,4 L-10,3 L-6,1 Z "
     transform="translate(156,3)"
     style="fill: #844C18;"
     id="path1665" />
  <path
     d="M0,0 L15,2 L21,7 L24,12 L23,14 L16,13 L12,13 L7,12 L1,9 L1,8 L9,8 L12,8 L12,5 L4,4 Z "
     transform="translate(121,77)"
     style="fill: #C17A34;"
     id="path1667" />
  <path
     d="M0,0 L4,1 L-1,7 L-1,20 L3,28 L10,36 L19,43 L22,44 L22,46 L17,45 L7,36 L2,31 L-2,25 L-2,23 L-4,23 L-5,20 L-5,7 L-1,1 Z "
     transform="translate(7,113)"
     style="fill: #BC9C6B;"
     id="path1669" />
  <path
     d="M0,0 L10,0 L13,3 L1,3 L-13,10 L-16,17 L-14,17 L-15,20 L-20,25 L-24,31 L-25,29 L-24,27 L-27,28 L-25,24 L-22,21 L-20,14 L-11,6 L-3,1 Z "
     transform="translate(84,41)"
     style="fill: #5F1A07;"
     id="path1671" />
  <path
     d="M0,0 L5,2 L10,10 L10,18 L7,18 L6,15 L1,14 L-2,10 L-3,12 L-12,5 L-9,4 L-1,6 L-1,3 L3,5 L8,12 L3,4 Z "
     transform="translate(42,23)"
     style="fill: #CEA167;"
     id="path1673" />
  <path
     d="M0,0 L2,1 L1,4 L2,8 L9,4 L19,3 L15,7 L10,9 L2,10 L-1,13 L-5,13 L-7,14 L-8,6 Z "
     transform="translate(160,151)"
     style="fill: #A06B30;"
     id="path1675" />
  <path
     d="M0,0 L4,4 L5,6 L9,7 L10,9 L12,7 L13,13 L8,19 L3,18 L4,15 L2,15 L3,10 L-2,14 L-6,13 L0,11 Z "
     transform="translate(39,31)"
     style="fill: #A8773F;"
     id="path1677" />
  <path
     d="M0,0 L1,4 L-4,9 L-12,14 L-22,18 L-30,22 L-37,21 L-36,19 L-20,13 L-10,9 Z "
     transform="translate(139,184)"
     style="fill: #CBA46A;"
     id="path1679" />
  <path
     d="M0,0 L4,2 L5,4 L5,15 L2,21 L1,19 L-1,19 L-3,15 L-5,8 L-6,5 L1,4 Z "
     transform="translate(188,117)"
     style="fill: #CB9853;"
     id="path1681" />
  <path
     d="M0,0 L2,0 L2,6 L5,6 L5,15 L3,15 L-1,6 L-3,10 L-5,26 L-7,27 L-8,9 L-9,17 L-10,17 L-10,7 L-6,1 L-5,1 L-4,6 Z "
     transform="translate(70,26)"
     style="fill: #971518;"
     id="path1683" />
  <path
     d="M0,0 L10,0 L19,1 L19,2 L13,3 L21,5 L21,6 L16,6 L15,11 L23,10 L21,14 L6,13 L10,11 L9,7 L10,5 L-1,4 L2,2 Z "
     transform="translate(114,8)"
     style="fill: #83521F;"
     id="path1685" />
  <path
     d="M0,0 L3,1 L0,4 L-2,9 L-12,18 L-14,18 L-13,13 L-11,10 L-13,10 L-11,6 L-7,2 Z "
     transform="translate(81,88)"
     style="fill: #8B401B;"
     id="path1687" />
  <path
     d="M0,0 L3,2 L6,7 L9,11 L9,13 L7,13 L7,15 L-2,15 L-10,11 L-10,8 L1,7 Z "
     transform="translate(128,64)"
     style="fill: #8D4B1C;"
     id="path1689" />
  <path
     d="M0,0 L3,1 L1,5 L1,12 L4,17 L13,23 L21,27 L18,28 L14,26 L6,25 L0,20 L-2,15 L-3,14 L-3,3 Z "
     transform="translate(60,171)"
     style="fill: #C89D5D;"
     id="path1691" />
  <path
     d="M0,0 L1,3 L7,3 L18,7 L23,11 L18,11 L18,9 L15,9 L15,11 L5,10 L7,9 L7,7 L4,8 L3,6 L4,4 L-1,8 L-7,17 L-11,21 L-9,16 L-2,6 Z "
     transform="translate(40,3)"
     style="fill: #A6773E;"
     id="path1693" />
  <path
     d="M0,0 L3,1 L2,2 L9,2 L9,4 L1,6 L1,7 L3,7 L1,11 L-1,11 L-1,13 L-8,13 L-11,14 L-11,16 L-15,20 L-18,25 L-19,22 L-15,14 L-9,10 L-4,6 Z "
     transform="translate(164,108)"
     style="fill: #B16D31;"
     id="path1695" />
  <path
     d="M0,0 L8,0 L13,3 L15,10 L14,11 L7,11 L0,7 L-2,4 L2,5 L5,7 L0,1 Z "
     style="fill: #CC7F2D;"
     id="path1697"
     transform="translate(115,61)" />
  <path
     d="M0,0 L1,0 L2,15 L2,29 L-2,30 L-3,32 L-3,13 Z "
     transform="translate(168,73)"
     style="fill: #A61A1E;"
     id="path1699" />
  <path
     d="M0,0 L1,0 L1,18 L-2,24 L-6,26 L-4,7 Z "
     transform="translate(162,88)"
     style="fill: #BF1D23;"
     id="path1701" />
  <path
     d="M0,0 L0,3 L2,8 L10,14 L10,11 L14,14 L15,19 L20,21 L36,29 L33,30 L21,25 L18,25 L14,23 L17,22 L6,14 L-2,7 L-4,2 Z "
     transform="translate(47,177)"
     style="fill: #884D14;"
     id="path1703" />
  <path
     d="M0,0 L8,0 L5,2 L10,3 L13,4 L13,10 L15,11 L9,10 L9,6 L2,6 L-3,7 L-5,6 L-5,8 L-10,11 L-10,6 Z "
     style="fill: #A5773F;"
     id="path1705"
     transform="translate(111,9)" />
  <path
     d="M0,0 L2,0 L3,2 L10,1 L7,4 L-1,8 L-1,9 L7,8 L4,10 L-2,13 L-7,16 L-6,8 L-9,10 L-8,6 L-5,3 L-3,3 Z "
     transform="translate(70,68)"
     style="fill: #712E0B;"
     id="path1707" />
  <path
     d="M0,0 L4,2 L9,12 L12,16 L12,20 L7,18 L2,12 L0,7 Z "
     transform="translate(89,91)"
     style="fill: #94471E;"
     id="path1709" />
  <path
     d="M0,0 L3,0 L5,5 L8,6 L4,8 L-4,15 L-7,12 L-5,6 Z "
     transform="translate(79,118)"
     style="fill: #823C19;"
     id="path1711" />
  <path
     d="M0,0 L2,0 L1,5 L-1,11 L-4,12 L-13,11 L-11,7 L-5,2 Z "
     transform="translate(38,134)"
     style="fill: #6C3D18;"
     id="path1713" />
  <path
     d="M0,0 L1,0 L1,23 L0,26 L-4,24 L-4,14 L-1,1 Z "
     transform="translate(46,63)"
     style="fill: #BC1E23;"
     id="path1715" />
  <path
     d="M0,0 L2,0 L-1,14 L-3,15 L-3,10 L-4,12 L-6,12 L-8,16 L-11,19 L-13,19 L-11,10 L-7,9 L-6,5 L-4,7 L-1,1 Z "
     transform="translate(52,94)"
     style="fill: #3B1003;"
     id="path1717" />
  <path
     d="M0,0 L4,2 L13,3 L18,10 L20,17 L20,23 L18,21 L15,8 L10,6 L11,10 L6,8 L0,3 Z "
     transform="translate(149,48)"
     style="fill: #3E0C05;"
     id="path1719" />
  <path
     d="M0,0 L7,0 L12,2 L10,8 L12,10 L6,9 L-3,6 L-1,4 Z "
     transform="translate(79,14)"
     style="fill: #D6AB68;"
     id="path1721" />
  <path
     d="M0,0 L4,1 L7,3 L5,7 L5,18 L7,20 L6,24 L5,24 L2,24 L-1,20 L1,20 L1,4 Z "
     transform="translate(53,167)"
     style="fill: #A56D2F;"
     id="path1723" />
  <path
     d="M0,0 L1,4 L-6,29 L-9,42 L-10,38 L-7,22 L-6,20 L-4,6 L-2,2 L0,2 Z "
     transform="translate(29,63)"
     style="fill: #C2965D;"
     id="path1725" />
  <path
     d="M0,0 L1,2 L-5,12 L-6,10 L-11,12 L-12,11 L-13,13 L-17,12 L-16,8 L-12,5 L-4,4 Z "
     transform="translate(51,45)"
     style="fill: #380A07;"
     id="path1727" />
  <path
     d="M0,0 L4,2 L5,3 L5,10 L3,14 L-1,12 L-5,10 L-3,5 Z "
     transform="translate(134,173)"
     style="fill: #220A04;"
     id="path1729" />
  <path
     d="M0,0 L2,0 L1,6 L-4,13 L-6,21 L-9,20 L-10,15 L-8,13 L-5,6 Z "
     transform="translate(42,7)"
     style="fill: #9E621F;"
     id="path1731" />
  <path
     d="M0,0 L8,1 L12,4 L13,11 L7,10 L0,4 Z "
     transform="translate(73,184)"
     style="fill: #A46124;"
     id="path1733" />
  <path
     d="M0,0 L2,3 L3,10 L1,10 L0,8 L0,16 L5,14 L6,23 L4,22 L4,18 L2,18 L2,24 L-1,20 L-3,12 L-3,2 L-1,2 Z "
     transform="translate(176,71)"
     style="fill: #CB9857;"
     id="path1735" />
</svg>
