<?xml version="1.0" encoding="UTF-8" standalone="no"?>
<svg
   id="svg"
   version="1.1"
   viewBox="0 0 188 217"
   style="display: block;"
   sodipodi:docname="edited_slytherin.svg"
   inkscape:version="1.1.2 (08b2f3d93c, 2022-04-05)"
   xmlns:inkscape="http://www.inkscape.org/namespaces/inkscape"
   xmlns:sodipodi="http://sodipodi.sourceforge.net/DTD/sodipodi-0.dtd"
   xmlns="http://www.w3.org/2000/svg"
   xmlns:svg="http://www.w3.org/2000/svg">
  <defs
     id="defs165" />
  <sodipodi:namedview
     id="namedview163"
     pagecolor="#ffffff"
     bordercolor="#666666"
     borderopacity="1.0"
     inkscape:pageshadow="2"
     inkscape:pageopacity="0.0"
     inkscape:pagecheckerboard="0"
     showgrid="false"
     inkscape:zoom="2.4516129"
     inkscape:cx="102.17763"
     inkscape:cy="87.085526"
     inkscape:window-width="1286"
     inkscape:window-height="704"
     inkscape:window-x="74"
     inkscape:window-y="27"
     inkscape:window-maximized="1"
     inkscape:current-layer="svg" />
  <path
     id="path2"
     style="fill: #162A19;"
     d="M 86 0 L 73 4 L 62 9 L 48 17 L 48 19 L 43 17 L 37 17 L 35 20 L 27 28 L 18 35 L 6 40 L 1 45 L 2 52 L 5 55 L 9 62 L 16 61 L 22 53 L 29 55 L 25 81 L 17 81 L 8 76 L 4 84 L 4 117 L 6 121 L 6 135 L 9 149 L 10 152 L 13 160 L 16 160 L 16 158 L 19 158 L 21 163 L 28 173 L 35 181 L 47 190 L 64 198 L 78 206 L 90 215 L 96 216 L 104 210 L 113 204 L 140 190 L 140 188 L 142 188 L 148 185 L 148 183 L 151 183 L 157 177 L 161 172 L 169 159 L 172 158 L 172 160 L 174 160 L 181 141 L 185 111 L 185 80 L 183 78 L 178 76 L 177 77 L 172 82 L 164 82 L 161 75 L 160 61 L 159 59 L 162 51 L 166 52 L 174 62 L 180 61 L 182 56 L 184 56 L 187 52 L 187 44 L 185 42 L 177 39 L 167 33 L 151 17 L 146 17 L 142 19 L 134 13 L 123 7 L 103 0 L 86 0 z " />
  <path
     d="M0,0 L17,0 L37,7 L51,15 L56,19 L60,17 L65,17 L74,27 L81,33 L93,39 L99,42 L101,44 L101,52 L98,56 L96,56 L94,61 L93,62 L88,62 L83,57 L80,52 L84,53 L85,57 L91,58 L91,56 L93,49 L97,48 L97,45 L85,45 L76,51 L73,59 L72,59 L72,52 L72,51 L72,48 L75,43 L75,38 L83,39 L78,34 L66,23 L55,25 L46,18 L45,16 L30,11 L20,9 L21,14 L36,14 L40,17 L44,18 L51,26 L53,29 L63,30 L67,34 L68,36 L68,43 L62,48 L60,48 L65,59 L66,64 L66,83 L65,83 L64,68 L61,56 L57,50 L53,50 L53,52 L55,52 L57,62 L53,67 L50,67 L52,74 L52,84 L48,96 L42,105 L34,114 L20,124 L4,133 L-5,140 L-5,142 L0,140 L5,144 L8,144 L2,140 L2,136 L6,136 L7,134 L17,135 L23,132 L26,126 L40,125 L48,120 L51,117 L56,118 L64,118 L67,118 L64,121 L56,121 L51,119 L49,123 L40,128 L28,128 L27,132 L21,137 L20,140 L25,136 L40,129 L54,129 L64,134 L69,139 L72,144 L73,151 L75,144 L77,142 L82,141 L85,132 L86,132 L85,142 L80,145 L77,144 L75,153 L68,165 L63,170 L55,177 L51,178 L56,173 L64,166 L59,170 L54,172 L53,168 L51,167 L50,164 L47,161 L50,157 L49,151 L43,153 L40,156 L40,158 L45,160 L48,164 L48,175 L47,175 L47,168 L45,168 L45,173 L42,177 L39,183 L36,184 L33,181 L33,172 L32,169 L26,169 L23,173 L17,174 L15,171 L11,173 L11,167 L15,161 L20,156 L15,158 L13,162 L10,167 L6,177 L1,179 L-3,179 L3,186 L11,190 L22,191 L22,193 L17,195 L8,195 L3,192 L-1,188 L-4,187 L-9,175 L-10,175 L-10,185 L-17,184 L-25,181 L-32,173 L-34,166 L-36,166 L-37,161 L-37,147 L-31,135 L-24,127 L-18,122 L-7,116 L-2,113 L3,111 L15,104 L24,97 L31,89 L34,83 L34,73 L29,68 L28,67 L20,67 L14,71 L12,71 L12,77 L8,83 L-2,88 L-11,92 L-19,91 L-23,89 L-22,82 L-15,74 L-13,67 L-17,74 L-22,75 L-32,68 L-33,62 L-29,57 L-27,57 L-27,54 L-25,53 L-21,46 L-20,45 L-15,45 L-15,43 L-18,43 L-18,39 L-14,40 L-14,43 L-12,43 L-12,38 L-11,34 L-3,31 L12,32 L13,28 L21,29 L21,26 L19,26 L20,22 L25,21 L25,19 L33,20 L33,22 L35,22 L38,25 L37,30 L42,29 L42,31 L49,32 L50,35 L58,35 L62,39 L61,45 L65,41 L65,35 L61,32 L53,32 L45,23 L36,18 L32,17 L22,17 L15,20 L12,23 L10,27 L5,26 L5,22 L1,20 L-5,17 L-16,17 L-23,19 L-32,26 L-36,31 L-46,32 L-49,36 L-49,41 L-47,45 L-42,47 L-41,51 L-46,56 L-47,47 L-51,44 L-52,36 L-50,32 L-46,29 L-39,27 L-39,25 L-50,26 L-50,24 L-61,33 L-69,39 L-70,41 L-59,34 L-58,35 L-57,32 L-54,33 L-55,37 L-59,44 L-54,49 L-53,51 L-52,68 L-49,68 L-49,60 L-46,57 L-47,68 L-47,81 L-45,95 L-48,96 L-56,93 L-63,93 L-68,97 L-71,102 L-72,117 L-73,117 L-73,101 L-70,93 L-65,91 L-53,91 L-56,87 L-56,85 L-61,88 L-67,88 L-67,85 L-73,84 L-75,82 L-79,81 L-80,121 L-82,117 L-82,84 L-80,78 L-78,76 L-74,77 L-69,81 L-61,81 L-59,79 L-58,66 L-58,52 L-60,48 L-64,47 L-70,44 L-79,44 L-81,46 L-82,50 L-78,50 L-73,57 L-68,56 L-67,52 L-64,53 L-70,61 L-77,62 L-81,55 L-84,52 L-85,45 L-80,40 L-68,35 L-59,28 L-51,20 L-49,17 L-43,17 L-38,19 L-38,17 L-24,9 L-13,4 Z M32,182 Z M31,183 Z "
     transform="translate(86,0)"
     style="fill: #275533;"
     id="path4" />
  <path
     d="M0,0 L17,0 L37,7 L51,15 L56,19 L60,17 L65,17 L74,27 L81,33 L93,39 L99,42 L101,44 L101,52 L98,56 L96,56 L94,61 L93,62 L88,62 L83,57 L80,52 L84,53 L85,57 L91,58 L91,56 L93,49 L97,48 L97,45 L85,45 L76,51 L73,59 L72,59 L72,52 L72,51 L72,48 L75,43 L75,38 L83,39 L78,34 L66,23 L55,25 L46,18 L45,16 L30,11 L20,9 L21,14 L36,14 L40,17 L44,18 L51,26 L53,29 L63,30 L67,34 L68,36 L68,43 L62,48 L60,48 L65,59 L66,64 L66,83 L65,83 L64,68 L61,56 L58,51 L59,47 L64,43 L65,41 L65,35 L61,32 L53,32 L45,23 L36,18 L32,17 L22,17 L15,20 L12,23 L10,27 L5,26 L5,22 L1,20 L-5,17 L-16,17 L-23,19 L-32,26 L-36,31 L-46,32 L-49,36 L-49,41 L-47,45 L-42,47 L-41,51 L-46,56 L-47,47 L-51,44 L-52,36 L-50,32 L-46,29 L-39,27 L-39,25 L-50,26 L-50,24 L-61,33 L-69,39 L-70,41 L-59,34 L-58,35 L-57,32 L-54,33 L-55,37 L-59,44 L-54,49 L-53,51 L-52,68 L-49,68 L-49,60 L-46,57 L-47,68 L-47,81 L-45,95 L-48,96 L-56,93 L-63,93 L-68,97 L-71,102 L-72,117 L-73,117 L-73,101 L-70,93 L-65,91 L-53,91 L-56,87 L-56,85 L-61,88 L-67,88 L-67,85 L-73,84 L-75,82 L-79,81 L-80,121 L-82,117 L-82,84 L-80,78 L-78,76 L-74,77 L-69,81 L-61,81 L-59,79 L-58,66 L-58,52 L-60,48 L-64,47 L-70,44 L-79,44 L-81,46 L-82,50 L-78,50 L-73,57 L-68,56 L-67,52 L-64,53 L-70,61 L-77,62 L-81,55 L-84,52 L-85,45 L-80,40 L-68,35 L-59,28 L-51,20 L-49,17 L-43,17 L-38,19 L-38,17 L-24,9 L-13,4 Z "
     transform="translate(86,0)"
     style="fill: #434443;"
     id="path8" />
  <path
     d="M0,0 L4,4 L7,11 L9,20 L9,36 L6,44 L6,47 L12,46 L15,45 L25,45 L30,48 L32,51 L32,67 L31,78 L27,93 L20,96 L17,104 L16,104 L14,94 L11,89 L3,84 L-2,82 L-16,82 L-32,90 L-36,92 L-35,88 L-29,83 L-28,80 L-16,79 L-7,74 L-5,71 L0,72 L8,72 L8,71 L0,71 L-5,70 L-12,76 L-16,78 L-30,78 L-31,83 L-36,87 L-45,88 L-49,86 L-48,89 L-53,88 L-53,92 L-45,96 L-45,97 L-51,97 L-56,93 L-60,94 L-63,97 L-62,92 L-52,84 L-33,73 L-20,63 L-11,52 L-6,40 L-5,36 L-5,26 L-6,19 L-3,18 L0,14 L-1,4 L-3,4 L-3,2 L0,2 Z "
     transform="translate(142,48)"
     style="fill: #0D270E;"
     id="path10" />
  <path
     d="M0,0 L14,0 L24,5 L29,10 L32,15 L33,22 L35,15 L37,13 L42,12 L45,3 L46,3 L45,13 L40,16 L37,15 L35,24 L28,36 L23,41 L15,48 L11,49 L16,44 L24,37 L19,41 L14,43 L13,39 L11,38 L10,35 L7,32 L10,28 L9,22 L3,24 L0,27 L0,29 L5,31 L8,35 L8,46 L7,46 L7,39 L5,39 L5,44 L2,48 L-1,54 L-4,55 L-7,52 L-7,43 L-8,40 L-14,40 L-17,44 L-23,45 L-25,42 L-29,44 L-29,38 L-25,32 L-20,27 L-27,31 L-29,31 L-31,35 L-34,39 L-39,39 L-39,36 L-35,36 L-35,30 L-32,29 L-30,24 L-26,19 L-22,18 L-21,14 L-19,13 L-16,8 Z M-8,53 Z M-9,54 Z "
     transform="translate(126,129)"
     style="fill: #272727;"
     id="path12" />
  <path
     d="M0,0 L11,0 L20,2 L20,6 L24,7 L29,15 L30,17 L29,40 L27,40 L26,45 L24,49 L19,54 L17,56 L7,57 L6,60 L2,60 L2,62 L-9,68 L-11,68 L-11,71 L-17,74 L-18,75 L-23,75 L-23,72 L-22,70 L-25,71 L-24,67 L-19,65 L-17,61 L-10,57 L5,47 L14,37 L17,31 L17,21 L12,16 L11,15 L3,15 L-3,19 L-5,19 L-5,25 L-9,31 L-19,36 L-28,40 L-36,39 L-40,37 L-39,30 L-32,22 L-28,14 L-21,8 L-11,6 Z "
     transform="translate(103,52)"
     style="fill: #3F6444;"
     id="path14" />
  <path
     d="M0,0 L2,3 L5,10 L13,10 L19,4 L24,6 L26,8 L26,39 L22,69 L17,85 L15,88 L13,88 L13,86 L10,87 L2,100 L-8,111 L-11,111 L-11,113 L-17,116 L-19,116 L-19,118 L-33,125 L-46,132 L-52,136 L-63,144 L-69,143 L-81,134 L-95,126 L-112,118 L-124,109 L-131,102 L-140,88 L-140,86 L-143,86 L-143,88 L-146,88 L-149,80 L-149,74 L-147,75 L-145,83 L-140,83 L-133,93 L-127,102 L-116,111 L-100,120 L-95,122 L-93,121 L-89,122 L-88,119 L-108,109 L-109,107 L-104,108 L-88,116 L-73,125 L-66,130 L-62,128 L-55,124 L-35,112 L-29,109 L-27,110 L-32,113 L-40,118 L-42,118 L-40,122 L-38,122 L-38,124 L-15,112 L-6,105 L1,97 L9,84 L10,83 L15,83 L17,72 L19,65 L22,47 L23,36 L23,18 L21,18 L21,14 L16,15 L4,15 L0,8 Z M-27,108 L-25,109 Z "
     transform="translate(159,72)"
     style="fill: #303130;"
     id="path16" />
  <path
     d="M0,0 L2,2 L10,1 L19,7 L18,11 L17,9 L15,9 L15,15 L8,26 L2,28 L-3,27 L-6,27 L-5,31 L-13,38 L-18,41 L-23,42 L-23,44 L-27,44 L-31,46 L-32,44 L-32,47 L-37,45 L-40,43 L-40,41 L-42,41 L-42,39 L-44,39 L-43,37 L-41,37 L-45,34 L-45,28 L-37,21 L-34,18 L-29,18 L-27,20 L-22,19 L-7,13 L-2,8 Z "
     transform="translate(98,71)"
     style="fill: #175324;"
     id="path18" />
  <path
     d="M0,0 L11,0 L17,3 L21,6 L22,10 L26,10 L29,5 L34,1 L38,0 L48,0 L58,4 L64,9 L69,15 L77,15 L82,19 L82,25 L77,31 L74,30 L77,29 L77,23 L76,20 L66,19 L65,17 L58,15 L58,13 L53,14 L54,9 L51,8 L51,6 L49,6 L49,4 L41,3 L41,5 L36,7 L35,10 L37,10 L37,13 L29,13 L28,16 L20,16 L19,14 L8,14 L11,4 L7,5 L-1,5 L-10,9 L-11,11 L-13,11 L-11,17 L-20,18 L-29,18 L-29,27 L-22,32 L-24,37 L-26,37 L-26,43 L-23,45 L-23,48 L-25,48 L-25,46 L-29,45 L-30,47 L-31,43 L-32,44 L-33,52 L-36,52 L-36,57 L-37,57 L-38,35 L-40,30 L-44,28 L-39,19 L-39,17 L-41,16 L-42,20 L-45,20 L-52,25 L-54,25 L-52,21 L-43,14 L-36,8 L-34,8 L-34,10 L-25,8 L-22,11 L-24,13 L-31,15 L-34,17 L-35,24 L-35,28 L-31,30 L-30,31 L-29,39 L-26,35 L-26,32 L-31,29 L-34,25 L-33,18 L-30,15 L-20,14 L-13,6 L-5,1 Z "
     transform="translate(70,16)"
     style="fill: #142716;"
     id="path20" />
  <path
     d="M0,0 L2,0 L2,3 L-2,7 L-7,8 L-8,11 L-11,13 L-14,13 L-14,15 L-19,15 L-19,17 L-22,20 L-31,22 L-41,33 L-46,44 L-47,51 L-47,56 L-51,54 L-54,55 L-55,59 L-60,54 L-62,51 L-63,38 L-60,28 L-52,19 L-46,14 L-35,8 L-30,5 L-28,5 L-30,10 L-35,12 L-35,14 L-33,14 L-34,18 L-29,18 L-25,15 L-22,15 L-22,12 L-11,6 L-9,6 L-9,4 L-5,3 L-4,1 Z "
     transform="translate(114,108)"
     style="fill: #545454;"
     id="path22" />
  <path
     d="M0,0 L11,0 L20,2 L20,6 L24,7 L29,15 L30,17 L29,38 L26,39 L25,37 L22,40 L20,40 L21,30 L23,30 L22,19 L20,19 L19,15 L11,11 L11,9 L2,10 L-4,14 L-9,16 L-13,16 L-14,20 L-24,25 L-26,25 L-25,20 L-26,20 L-26,14 L-22,10 L-19,9 L-12,9 L-10,5 Z "
     transform="translate(103,52)"
     style="fill: #A5A5A5;"
     id="path24" />
  <path
     d="M0,0 L11,0 L19,3 L23,6 L27,7 L26,16 L28,16 L28,21 L26,22 L26,20 L23,19 L23,14 L6,12 L-1,15 L-5,18 L-7,18 L-7,15 L-12,16 L-12,19 L-14,19 L-14,21 L-17,21 L-18,19 L-21,25 L-26,28 L-28,28 L-30,32 L-33,36 L-38,36 L-38,33 L-34,33 L-34,27 L-31,26 L-29,21 L-25,16 L-21,15 L-20,11 L-15,7 L-1,1 Z "
     transform="translate(125,132)"
     style="fill: #545754;"
     id="path26" />
  <path
     d="M0,0 L2,0 L3,13 L5,20 L9,15 L11,12 L14,21 L19,20 L24,25 L30,27 L39,31 L38,35 L33,34 L25,30 L26,38 L32,47 L40,54 L40,56 L42,57 L36,59 L34,58 L33,60 L23,51 L13,35 L8,34 L5,26 L3,28 L0,14 Z "
     transform="translate(6,121)"
     style="fill: #232C23;"
     id="path28" />
  <path
     d="M0,0 L8,1 L8,3 L10,3 L13,6 L12,11 L17,10 L17,12 L24,13 L25,16 L33,16 L37,20 L36,26 L34,28 L32,31 L28,31 L28,33 L30,33 L32,43 L30,42 L29,34 L22,32 L18,27 L13,23 L8,21 L9,15 L5,15 L4,20 L2,16 L-2,14 L-4,12 L-13,12 L-12,9 L-4,10 L-4,7 L-6,7 L-5,3 L0,2 Z "
     transform="translate(111,19)"
     style="fill: #18602A;"
     id="path30" />
  <path
     d="M0,0 L7,0 L9,2 L8,9 L13,10 L12,14 L8,19 L-1,22 L-3,23 L-12,23 L-14,20 L-19,18 L-22,15 L-23,6 L-25,6 L-25,4 L-17,1 L-2,1 Z "
     transform="translate(100,30)"
     style="fill: #229945;"
     id="path32" />
  <path
     d="M0,0 L12,0 L22,6 L24,9 L24,20 L23,20 L23,13 L21,13 L21,18 L18,22 L15,28 L12,29 L9,26 L9,17 L8,14 L2,14 L-1,18 L-7,19 L-9,16 L-13,18 L-13,12 L-9,6 L-4,2 Z M8,27 Z M7,28 Z "
     transform="translate(110,155)"
     style="fill: #383838;"
     id="path34" />
  <path
     d="M0,0 L13,0 L17,5 L17,7 L15,7 L18,11 L17,14 L12,13 L10,9 L9,10 L-3,11 L-10,13 L-11,16 L-19,22 L-23,27 L-33,28 L-36,32 L-36,37 L-34,41 L-29,43 L-28,47 L-33,52 L-34,43 L-38,40 L-39,32 L-37,28 L-33,25 L-26,23 L-26,21 L-37,22 L-38,19 L-35,18 L-26,17 L-17,10 L-11,5 Z "
     transform="translate(73,4)"
     style="fill: #2D2D2D;"
     id="path36" />
  <path
     d="M0,0 L5,1 L13,1 L16,1 L13,4 L5,4 L0,2 L-2,6 L-11,11 L-23,11 L-24,15 L-30,20 L-31,25 L-41,33 L-49,40 L-51,41 L-58,41 L-61,38 L-61,30 L-58,26 L-57,27 L-53,23 L-49,25 L-46,27 L-43,27 L-49,23 L-49,19 L-45,19 L-44,17 L-34,18 L-28,15 L-25,9 L-11,8 L-3,3 Z "
     transform="translate(137,117)"
     style="fill: #153D17;"
     id="path38" />
  <path
     d="M0,0 L6,2 L14,8 L18,6 L23,6 L32,16 L39,22 L51,28 L57,31 L59,33 L59,41 L56,45 L54,45 L52,50 L51,51 L46,51 L41,46 L38,41 L42,42 L43,46 L49,47 L49,45 L51,38 L55,37 L55,34 L43,34 L34,40 L31,48 L30,48 L30,41 L30,40 L30,37 L33,32 L33,27 L41,28 L36,23 L24,12 L17,12 L10,9 L6,5 L0,1 Z "
     transform="translate(128,11)"
     style="fill: #5D5D5D;"
     id="path40" />
  <path
     d="M0,0 L12,0 L18,4 L19,9 L16,14 L16,19 L11,23 L0,23 L-3,16 L-3,4 Z "
     transform="translate(45,72)"
     style="fill: #196A32;"
     id="path42" />
  <path
     d="M0,0 L1,3 L-2,8 L-5,11 L-8,11 L-10,15 L-13,17 L-17,17 L-18,20 L-22,20 L-22,22 L-33,28 L-35,28 L-35,31 L-41,34 L-42,35 L-47,35 L-47,32 L-46,30 L-49,31 L-48,27 L-43,25 L-41,21 L-33,18 L-27,18 L-27,16 L-21,13 L-19,13 L-17,9 L-11,6 L-8,5 L-6,1 L-2,2 Z "
     transform="translate(127,92)"
     style="fill: #6E6F6F;"
     id="path44" />
  <path
     d="M0,0 L14,0 L24,5 L29,10 L32,15 L33,22 L35,15 L37,13 L42,12 L45,3 L46,3 L45,13 L40,16 L37,15 L35,24 L28,36 L23,41 L15,48 L11,49 L16,44 L26,35 L25,30 L23,31 L24,23 L26,24 L27,19 L25,19 L26,10 L20,9 L17,6 L10,4 L-1,4 L-13,10 L-18,11 L-15,7 Z "
     transform="translate(126,129)"
     style="fill: #334234;"
     id="path46" />
  <path
     d="M0,0 L2,3 L5,10 L13,10 L19,4 L24,6 L26,8 L26,39 L22,69 L17,85 L15,88 L13,88 L13,86 L10,87 L2,100 L-3,104 L-1,99 L5,90 L10,83 L15,83 L17,72 L19,65 L22,47 L23,36 L23,18 L21,18 L21,14 L16,15 L4,15 L0,8 Z "
     transform="translate(159,72)"
     style="fill: #575857;"
     id="path48" />
  <path
     d="M0,0 L3,1 L-9,9 L-13,11 L-20,12 L-24,14 L-34,23 L-40,27 L-42,30 L-37,29 L-33,33 L-34,34 L-29,38 L-27,41 L-27,48 L-29,44 L-32,39 L-32,37 L-36,36 L-42,33 L-51,33 L-53,35 L-54,39 L-50,39 L-45,46 L-40,45 L-39,41 L-36,42 L-42,50 L-49,51 L-53,44 L-56,41 L-57,34 L-52,29 L-40,24 L-31,17 L-23,9 L-21,6 L-15,6 L-10,8 L-10,6 Z "
     transform="translate(58,11)"
     style="fill: #666667;"
     id="path50" />
  <path
     d="M0,0 L4,0 L4,2 L-6,4 L-9,7 L-9,12 L-8,15 L-10,18 L2,12 L3,9 L6,10 L7,11 L6,18 L5,20 L3,20 L1,24 L-1,24 L-1,20 L-8,22 L-10,28 L-15,31 L-20,32 L-24,30 L-23,23 L-16,15 L-12,7 L-5,1 Z "
     transform="translate(87,59)"
     style="fill: #727272;"
     id="path52" />
  <path
     d="M0,0 L2,0 L2,4 L6,5 L11,13 L12,15 L11,36 L8,37 L7,35 L4,38 L2,38 L3,28 L5,28 L4,17 L2,17 L1,13 L-7,9 L-7,7 L-16,8 L-22,12 L-25,11 L-24,8 L-16,4 L-3,6 L1,8 L3,9 Z "
     transform="translate(121,54)"
     style="fill: #7A7C7A;"
     id="path54" />
  <path
     d="M0,0 L2,1 L4,9 L9,9 L16,19 L22,28 L33,37 L49,46 L56,50 L63,53 L74,60 L82,66 L86,65 L92,61 L95,61 L94,64 L86,70 L80,69 L68,60 L54,52 L37,44 L25,35 L18,28 L9,14 L9,12 L6,12 L6,14 L3,14 L0,6 Z "
     transform="translate(10,146)"
     style="fill: #4B4A4B;"
     id="path56" />
  <path
     d="M0,0 L9,0 L15,10 L22,13 L29,13 L35,10 L37,10 L37,12 L32,15 L28,16 L20,16 L11,11 L16,15 L20,17 L30,18 L30,22 L27,23 L17,23 L11,19 L5,12 L5,9 L3,9 L3,5 L7,5 L8,2 L2,2 Z "
     transform="translate(21,116)"
     style="fill: #1C421F;"
     id="path58" />
  <path
     d="M0,0 L11,0 L19,3 L22,6 L22,8 L17,7 L17,9 L5,9 L-3,12 L-8,11 L-10,15 L-14,15 L-14,12 L-11,9 L-10,5 Z "
     transform="translate(125,132)"
     style="fill: #7C7C7C;"
     id="path60" />
  <path
     d="M0,0 L2,2 L-4,10 L-6,11 L-8,22 L-15,28 L-22,29 L-21,32 L-26,31 L-25,29 L-35,27 L-30,21 L-19,22 L-13,18 L-11,8 L-6,5 Z "
     transform="translate(168,100)"
     style="fill: #19411C;"
     id="path62" />
  <path
     d="M0,0 L12,0 L17,3 L18,9 L13,10 L3,10 L-8,12 L-10,10 L-9,6 L-4,2 Z "
     transform="translate(110,155)"
     style="fill: #848484;"
     id="path64" />
  <path
     d="M0,0 L3,4 L2,9 L-3,14 L-4,15 L-10,15 L-10,12 L-16,11 L-18,9 L-22,8 L-23,48 L-25,44 L-25,11 L-23,5 L-21,3 L-17,4 L-12,8 L-4,8 L-2,6 Z "
     transform="translate(29,73)"
     style="fill: #686869;"
     id="path66" />
  <path
     d="M0,0 L3,1 L-4,8 L-9,19 L-10,26 L-10,31 L-14,29 L-17,16 L-19,12 L-15,12 L-11,6 L-9,4 L-4,2 Z "
     transform="translate(77,133)"
     style="fill: #494949;"
     id="path68" />
  <path
     d="M0,0 L9,0 L9,2 L13,4 L0,4 L-6,8 L-10,18 L-14,22 L-23,26 L-32,30 L-34,29 L-31,26 L-28,24 L-27,20 L-24,18 L-19,18 L-19,22 L-15,18 L-13,18 L-11,9 L-14,10 L-14,8 L-10,5 L-3,2 Z "
     transform="translate(105,61)"
     style="fill: #304331;"
     id="path70" />
  <path
     d="M0,0 L6,1 L2,6 L-3,9 L-5,14 L-9,13 L-21,13 L-25,13 L-26,9 L-23,7 L-23,10 L-20,10 L-20,8 L-18,8 L-18,5 L-11,3 L-13,7 L-7,3 Z "
     transform="translate(131,143)"
     style="fill: #363635;"
     id="path72" />
  <path
     d="M0,0 L2,0 L3,13 L5,20 L9,15 L11,12 L15,21 L15,23 L13,23 L13,25 L10,28 L10,30 L13,30 L13,32 L15,32 L14,35 L8,34 L5,26 L3,28 L0,14 Z "
     transform="translate(6,121)"
     style="fill: #383938;"
     id="path74" />
  <path
     d="M0,0 L11,0 L10,9 L5,15 L-1,15 L-5,12 L-5,5 Z "
     transform="translate(67,22)"
     style="fill: #1B7237;"
     id="path76" />
  <path
     d="M0,0 L1,3 L-2,8 L-5,11 L-8,11 L-10,15 L-13,17 L-17,17 L-18,20 L-22,20 L-22,17 L-26,16 L-21,13 L-19,13 L-17,9 L-11,6 L-8,5 L-6,1 L-2,2 Z "
     transform="translate(127,92)"
     style="fill: #919292;"
     id="path78" />
  <path
     d="M0,0 L1,0 L2,16 L4,16 L7,19 L10,22 L0,22 L-7,18 L-12,13 L-12,11 L-3,9 Z "
     transform="translate(95,168)"
     style="fill: #0A0A0A;"
     id="path80" />
  <path
     d="M0,0 L4,1 L11,9 L15,20 L15,30 L11,42 L8,47 L7,44 L10,38 L10,35 L9,35 L9,15 L4,6 L0,4 Z "
     transform="translate(123,54)"
     style="fill: #3B6945;"
     id="path82" />
  <path
     d="M0,0 L10,0 L19,3 L26,11 L28,14 L38,15 L42,19 L43,21 L43,28 L37,33 L35,33 L40,44 L41,49 L41,68 L40,68 L39,53 L36,41 L33,36 L34,32 L39,28 L40,26 L40,20 L36,17 L28,17 L20,8 L11,3 L0,1 Z "
     transform="translate(111,15)"
     style="fill: #4B504B;"
     id="path84" />
  <path
     d="M0,0 L8,1 L8,3 L10,3 L13,6 L12,11 L3,14 L-2,12 L-4,4 Z "
     transform="translate(111,19)"
     style="fill: #1C6B32;"
     id="path86" />
  <path
     d="M0,0 L3,0 L5,10 L11,17 L19,21 L30,22 L30,24 L25,26 L16,26 L11,23 L7,19 L4,18 L0,9 Z "
     transform="translate(78,169)"
     style="fill: #4D4D4E;"
     id="path88" />
  <path
     d="M0,0 L2,2 L-4,8 L-7,8 L-7,10 L-13,13 L-15,13 L-15,15 L-29,22 L-42,29 L-47,32 L-49,32 L-47,28 L-40,23 L-36,19 L-34,19 L-34,21 L-11,9 L-2,2 Z "
     transform="translate(155,175)"
     style="fill: #4A4A4A;"
     id="path90" />
  <path
     d="M0,0 L1,3 L0,5 L-4,7 L-12,20 L-21,30 L-29,35 L-33,34 L-19,24 L-17,19 L-15,15 L-13,15 L-12,12 L-10,11 L-10,5 L-8,2 L0,2 Z "
     transform="translate(172,150)"
     style="fill: #343434;"
     id="path92" />
  <path
     d="M0,0 L5,0 L7,15 L3,16 L-2,14 L-9,14 L-14,18 L-17,23 L-18,38 L-19,38 L-19,22 L-16,14 L-11,12 L1,12 L-3,5 Z "
     transform="translate(32,79)"
     style="fill: #2E302F;"
     id="path94" />
  <path
     d="M0,0 L8,0 L22,5 L26,7 L26,9 L30,11 L35,15 L40,15 L40,17 L35,19 L31,18 L24,11 L24,9 L18,8 L16,6 L1,5 Z "
     transform="translate(106,9)"
     style="fill: #171718;"
     id="path96" />
  <path
     d="M0,0 L4,1 L5,4 L5,17 L4,22 L1,22 L0,24 L-2,19 L-3,4 Z "
     transform="translate(143,64)"
     style="fill: #1D5226;"
     id="path98" />
  <path
     d="M0,0 L9,0 L13,5 L13,9 L7,10 L7,12 L-2,11 L-8,10 L-8,9 L3,8 L-3,6 L-1,1 Z "
     transform="translate(116,42)"
     style="fill: #298745;"
     id="path100" />
  <path
     d="M0,0 L7,1 L8,4 L5,4 L5,11 L0,21 L-2,21 L-1,26 L-3,28 L-3,10 L-2,3 Z "
     transform="translate(10,84)"
     style="fill: #0C0C0C;"
     id="path102" />
  <path
     d="M0,0 L2,0 L4,11 L6,11 L9,17 L11,17 L11,22 L13,25 L9,23 L6,20 L6,18 L2,19 L-3,11 L-3,6 L-5,2 Z "
     transform="translate(27,153)"
     style="fill: #161616;"
     id="path104" />
  <path
     d="M0,0 L5,1 L13,1 L16,1 L13,4 L5,4 L0,2 L-2,6 L-11,11 L-23,11 L-24,15 L-30,20 L-33,21 L-41,21 L-42,19 L-31,17 L-26,12 L-25,9 L-11,8 L-3,3 Z "
     transform="translate(137,117)"
     style="fill: #266239;"
     id="path106" />
  <path
     d="M0,0 L6,2 L14,8 L18,6 L23,6 L32,16 L39,22 L49,28 L45,29 L34,21 L24,12 L17,12 L10,9 L6,5 L0,1 Z "
     transform="translate(128,11)"
     style="fill: #747474;"
     id="path108" />
  <path
     d="M0,0 L4,4 L2,5 L2,7 L-2,10 L-12,8 L-18,10 L-20,15 L-24,16 L-26,13 L-30,15 L-30,9 L-27,5 L-25,8 L-14,6 L1,6 Z "
     transform="translate(127,158)"
     style="fill: #535353;"
     id="path110" />
  <path
     d="M0,0 L5,2 L7,6 L6,11 L4,14 L2,14 L0,19 L-1,20 L-6,20 L-11,15 L-14,10 L-10,11 L-9,15 L-3,16 L-3,14 L-1,7 L3,6 L3,3 L-7,2 L-7,1 Z "
     transform="translate(180,42)"
     style="fill: #343434;"
     id="path112" />
  <path
     d="M0,0 L10,0 L14,1 L17,7 L17,12 L15,9 L10,4 L9,3 L1,3 L-5,7 L-7,7 L-7,13 L-11,19 L-21,24 L-30,28 L-34,27 L-23,22 L-14,18 L-12,18 L-10,13 L-7,5 L-2,1 Z "
     transform="translate(105,64)"
     style="fill: #40894F;"
     id="path114" />
  <path
     d="M0,0 L14,0 L20,3 L21,9 L17,6 L10,4 L-1,4 L-13,10 L-18,11 L-15,7 Z "
     transform="translate(126,129)"
     style="fill: #397546;"
     id="path116" />
  <path
     d="M0,0 L1,2 L-1,7 L5,7 L7,12 L1,16 L-4,17 L-8,15 L-7,8 Z "
     transform="translate(71,74)"
     style="fill: #606160;"
     id="path118" />
  <path
     d="M0,0 L3,0 L3,2 L10,4 L10,5 L4,5 L5,10 L20,10 L21,12 L2,12 L-2,13 L-2,15 L-4,15 L-5,11 L-2,7 L-4,6 L-1,1 Z "
     transform="translate(102,4)"
     style="fill: #2A2B2B;"
     id="path120" />
  <path
     d="M0,0 L3,1 L1,3 L0,7 L4,7 L9,14 L14,13 L15,9 L18,10 L12,18 L5,19 L1,12 L-2,9 L-3,4 Z "
     transform="translate(4,43)"
     style="fill: #3F3F3E;"
     id="path122" />
  <path
     d="M0,0 L0,3 L-5,10 L-5,20 L-4,26 L-10,24 L-11,20 L-11,13 L-7,5 Z "
     transform="translate(80,135)"
     style="fill: #213121;"
     id="path124" />
  <path
     d="M0,0 L1,0 L0,10 L-5,13 L-8,12 L-10,21 L-17,33 L-22,38 L-30,45 L-34,46 L-29,41 L-19,32 L-12,19 L-10,12 L-8,10 L-3,9 Z "
     transform="translate(171,132)"
     style="fill: #4B4E4B;"
     id="path126" />
  <path
     d="M0,0 L1,0 L1,5 L4,4 L4,6 L2,6 L1,11 L-1,15 L-6,20 L-8,22 L-12,21 L-9,17 L-6,17 L-5,14 L-3,14 L-2,10 L-2,8 L-4,9 L-4,7 L-8,9 L-13,14 L-16,13 L-9,5 L-6,6 L-5,2 L-5,6 L-1,3 Z "
     transform="translate(128,86)"
     style="fill: #626461;"
     id="path128" />
  <path
     d="M0,0 L2,1 L-6,10 L-16,11 L-19,15 L-19,20 L-17,24 L-12,26 L-11,30 L-16,35 L-17,26 L-21,23 L-22,15 L-20,11 L-16,8 L-6,8 L-4,4 Z "
     transform="translate(56,21)"
     style="fill: #4A4C48;"
     id="path130" />
  <path
     d="M0,0 L12,0 L13,3 L12,6 L-1,7 L-5,6 L-4,2 Z "
     transform="translate(110,155)"
     style="fill: #ACACAC;"
     id="path132" />
  <path
     d="M0,0 L2,4 L-2,6 L-2,9 L1,10 L0,13 L-2,13 L-2,15 L-5,15 L-6,13 L-9,19 L-13,18 L-13,15 L-11,14 L-8,9 L-4,6 L-2,2 Z "
     transform="translate(113,138)"
     style="fill: #6A6C6A;"
     id="path134" />
  <path
     d="M0,0 L7,2 L11,1 L9,2 L12,3 L13,6 L7,11 L3,10 L-2,5 L1,4 Z "
     transform="translate(88,202)"
     style="fill: #1C1C1C;"
     id="path136" />
  <path
     d="M0,0 L2,3 L3,8 L5,7 L6,21 L5,21 L6,28 L8,31 L5,31 L2,26 L1,23 Z "
     transform="translate(155,54)"
     style="fill: #353636;"
     id="path138" />
  <path
     d="M0,0 L3,0 L3,12 L0,13 L-1,11 L-4,14 L-6,14 L-5,4 L-3,4 L-3,2 L0,2 Z "
     transform="translate(129,78)"
     style="fill: #8B8B8C;"
     id="path140" />
  <path
     d="M0,0 L5,1 L14,8 L18,7 L24,3 L27,3 L26,6 L18,12 L12,11 L0,2 Z "
     transform="translate(78,204)"
     style="fill: #939393;"
     id="path142" />
  <path
     d="M0,0 L1,0 L1,6 L-3,6 L-3,9 L3,7 L7,1 L11,0 L7,5 L5,9 L-1,13 L-2,14 L-7,14 L-6,9 L-4,2 Z "
     transform="translate(90,159)"
     style="fill: #3E3F3E;"
     id="path144" />
  <path
     d="M0,0 L1,4 L-2,12 L-3,14 L-5,14 L-5,12 L-8,13 L-16,26 L-21,30 L-19,25 L-13,16 L-8,9 L-3,9 L-2,3 Z "
     transform="translate(177,146)"
     style="fill: #989898;"
     id="path146" />
  <path
     d="M0,0 L5,2 L7,4 L7,29 L5,33 L4,6 L1,5 L-3,7 L-1,1 Z "
     transform="translate(178,76)"
     style="fill: #8D8D8D;"
     id="path148" />
  <path
     d="M0,0 L6,0 L9,3 L9,10 L6,13 L4,13 L5,9 L2,9 L-1,5 Z "
     transform="translate(111,171)"
     style="fill: #060606;"
     id="path150" />
  <path
     d="M0,0 L2,1 L4,9 L9,9 L16,19 L19,24 L18,27 L11,17 L9,12 L6,12 L6,14 L3,14 L0,6 Z "
     transform="translate(10,146)"
     style="fill: #929292;"
     id="path152" />
  <path
     d="M0,0 L11,0 L13,1 L13,3 L2,5 L-7,9 L-9,9 L-8,4 Z "
     transform="translate(125,132)"
     style="fill: #979D96;"
     id="path154" />
  <path
     d="M0,0 L5,0 L9,4 L0,4 L-2,8 L-8,10 L-9,15 L-5,16 L0,14 L-5,19 L-10,17 L-11,16 L-11,10 L-3,3 Z "
     transform="translate(64,89)"
     style="fill: #24512E;"
     id="path156" />
  <path
     d="M0,0 L1,4 L2,8 L15,8 L21,10 L21,12 L16,11 L6,11 L1,13 L-4,12 L-2,3 Z "
     transform="translate(151,83)"
     style="fill: #343834;"
     id="path158" />
  <path
     d="M0,0 L1,2 L0,10 L-3,13 L-5,13 L-4,18 L-7,20 L-10,17 L-9,12 L-6,8 L-4,8 L-4,5 L-2,4 Z "
     transform="translate(63,49)"
     style="fill: #1E7136;"
     id="path160" />
</svg>
